<svg width="200" height="100" viewBox="0 0 200 100" fill="none" xmlns="http://www.w3.org/2000/svg">
	<path d="M0 0C66 0 132 0 200 0C200 33 200 66 200 100C134 100 68 100 0 100C0 67 0 34 0 0Z" fill="#FDFDFD"/>
	<path d="M7.5 22C10.3923 22 12.3827 23.2117 14.3776 25.2012C14.6371 25.463 14.8937 25.7261 15.1447 25.9962C15.9271 26.8231 16.6329 27.2223 17.7845 27.262C19.7704 27.2528 20.7213 26.6313 22.0962 25.2525C22.3166 25.0288 22.5365 24.8045 22.7557 24.5795C23.499 23.8197 24.2099 23.1504 25.1667 22.6667C25.2904 22.599 25.4142 22.5313 25.5417 22.4616C27.3567 21.6307 29.8478 21.6778 31.7083 22.3542C32.0325 22.504 32.3527 22.663 32.6667 22.8334C32.7966 22.9038 32.9266 22.9743 33.0605 23.0469C34.2206 23.7557 35.1803 24.7407 36.1667 25.6667C36.4153 25.8939 36.6651 26.1198 36.9167 26.3438C37.0146 26.4316 37.1126 26.5195 37.2135 26.61C38.1875 27.3693 39.3311 27.2982 40.5137 27.2092C41.9877 27.0133 42.9903 25.7057 43.9703 24.6983C44.7474 23.9027 45.5234 23.2126 46.5 22.6667C46.6276 22.5951 46.7552 22.5236 46.8867 22.4499C48.6934 21.6259 51.1923 21.6819 53.0417 22.3542C53.3659 22.504 53.6861 22.663 54 22.8334C54.13 22.9038 54.26 22.9743 54.3939 23.0469C55.5539 23.7557 56.5136 24.7407 57.5 25.6667C57.7486 25.8939 57.9984 26.1198 58.25 26.3438C58.348 26.4316 58.4459 26.5195 58.5469 26.61C59.5208 27.3693 60.6644 27.2982 61.847 27.2092C63.3216 27.0132 64.3149 25.7095 65.2905 24.6986C66.9309 23.0179 68.7897 22.0099 71.1484 21.9426C73.9582 21.9095 75.9272 22.8233 77.9373 24.7608C78.2846 25.1074 78.6295 25.4551 78.9633 25.8148C79.7216 26.6164 80.3856 27.1057 81.4837 27.2552C81.7079 27.257 81.9321 27.2552 82.1563 27.25C82.3224 27.2539 82.3224 27.2539 82.4919 27.2578C83.7096 27.2484 84.5921 26.7734 85.4518 25.9291C85.6567 25.7144 85.8602 25.4984 86.0625 25.2813C87.6233 23.669 89.1271 22.5516 91.3333 22C91.8833 22 92.4333 22 93 22C93 23.375 93 24.75 93 26.1667C92.0925 26.3317 92.0925 26.3317 91.1667 26.5C90.3374 26.9949 89.7223 27.6084 89.0532 28.2941C87.3913 29.9965 85.4373 31.3972 82.9727 31.528C80.0016 31.5448 78.1023 30.842 75.9642 28.7923C75.5662 28.3988 75.1782 27.9984 74.7917 27.5938C73.5995 26.4114 72.6382 26.2589 70.9635 26.2448C69.5391 26.4449 68.7137 27.2061 67.7604 28.2292C66.9023 29.1184 66.085 29.8918 65 30.5C64.904 30.5638 64.8079 30.6276 64.709 30.6934C63.0633 31.7538 60.7331 31.7078 58.8509 31.4284C58.4325 31.3189 58.0606 31.1784 57.6667 31C57.5178 30.9343 57.3689 30.8685 57.2155 30.8008C55.9089 30.1327 54.9756 29.2059 53.9931 28.1291C53.0841 27.1587 52.0331 26.3669 50.6706 26.2227C48.5915 26.2449 47.838 26.809 46.4375 28.2292C46.3437 28.3252 46.2499 28.4211 46.1533 28.52C44.2704 30.4329 42.0949 31.5293 39.3958 31.5521C38.1434 31.5532 37.1268 31.4206 36 30.8334C35.858 30.762 35.716 30.6907 35.5697 30.6172C34.3973 29.9512 33.5027 29.0519 32.5942 28.0698C31.7335 27.1594 30.7748 26.3508 29.4837 26.2227C27.4296 26.2429 26.629 26.6838 25.1979 28.1354C25.1126 28.2232 25.0273 28.3109 24.9394 28.4013C23.4571 29.9126 21.5336 31.4475 19.3333 31.5C19.1297 31.5084 18.926 31.5168 18.7161 31.5254C16.0325 31.6045 14.1899 30.8722 12.2233 29.0449C11.8882 28.7199 11.5628 28.3888 11.2396 28.0521C10.0889 26.8934 9.09936 26.4798 7.5 26C7.5 24.68 7.5 23.36 7.5 22Z" fill="#E85130"/>
	<path d="M7.5 31.1667C10.3933 31.1667 12.294 32.3556 14.3333 34.3334C14.7249 34.728 15.1146 35.1236 15.4987 35.5254C16.4396 36.3913 17.656 36.3994 18.8796 36.3763C20.691 36.2048 22.0905 34.448 23.2708 33.198C24.6167 31.8324 26.3598 31.1141 28.2544 31.0715C31.2916 31.0799 33.1593 31.8987 35.3333 34C35.6299 34.3008 35.9251 34.6028 36.2188 34.9063C37.2772 35.9716 37.9808 36.3618 39.5 36.4167C41.7245 36.3341 42.9183 34.8888 44.4284 33.4154C46.4313 31.5156 48.3302 31.0556 51.0052 31.1003C53.5835 31.2149 55.3611 32.6611 57.1043 34.4519C58.5092 35.8922 59.3255 36.3978 61.3737 36.4382C62.9349 36.1769 63.9664 35.3117 65.0104 34.1771C66.6039 32.4654 68.2706 31.2323 70.681 31.1088C70.9887 31.1013 71.2964 31.0963 71.6042 31.0938C71.7492 31.0921 71.8943 31.0904 72.0438 31.0887C74.5525 31.1223 76.3679 32.3219 78.0737 34.0639C78.1731 34.1666 78.2726 34.2692 78.375 34.375C79.5996 35.6292 80.419 36.3551 82.2396 36.448C84.2808 36.3607 85.279 35.2551 86.6252 33.8649C87.8764 32.5869 89.3834 31.5292 91.1667 31.1667C91.7717 31.1667 92.3767 31.1667 93 31.1667C93 32.5417 93 33.9167 93 35.3334C92.505 35.3884 92.01 35.4434 91.5 35.5C90.3983 36.0142 89.6577 36.8268 88.8217 37.6864C87.1614 39.3765 85.1486 40.6754 82.7232 40.7386C80.4022 40.7445 78.5929 40.2689 76.8333 38.6667C76.6984 38.5475 76.5635 38.4282 76.4245 38.3054C75.8661 37.8078 75.3135 37.3049 74.7689 36.7924C73.5859 35.6977 72.6363 35.2113 70.9961 35.2683C69.5734 35.455 68.7312 36.4003 67.7758 37.3896C65.9907 39.2249 63.9155 40.6541 61.2985 40.7241C58.4773 40.7552 56.6082 39.8508 54.5757 37.9222C54.1831 37.5355 53.8007 37.1419 53.4225 36.7409C52.4314 35.7849 51.4731 35.3275 50.1042 35.2709C48.5661 35.3063 47.5543 36.1014 46.5 37.1667C46.3926 37.3029 46.2852 37.4391 46.1745 37.5795C44.9427 39.0981 42.768 40.485 40.7974 40.7086C38.2604 40.8675 36.2368 40.546 34.2253 38.8659C33.6152 38.2964 33.0257 37.7061 32.4485 37.1032C31.5918 36.2178 30.6566 35.4269 29.3919 35.2832C27.5611 35.2754 26.5061 35.9722 25.1667 37.1667C24.8589 37.4771 24.5534 37.7896 24.25 38.1042C23.454 38.9125 22.6849 39.5029 21.6667 40C21.5384 40.0686 21.4101 40.1371 21.278 40.2077C19.6401 40.9532 17.3671 41.009 15.6471 40.4883C14.1542 39.8905 12.9601 38.9964 11.8568 37.8386C10.5732 36.4923 9.38248 35.5432 7.5 35.1667C7.5 33.8467 7.5 32.5267 7.5 31.1667Z" fill="#E85130"/>
	<path d="M7.5 40.3333C10.1961 40.3333 12.0815 41.2243 13.9695 43.1088C14.1868 43.3303 14.4025 43.5534 14.6165 43.7782C15.676 44.8867 16.516 45.5175 18.1042 45.5625C19.8334 45.5377 20.6221 44.9146 21.8021 43.7083C21.9284 43.5775 21.9284 43.5775 22.0573 43.4441C23.8836 41.5658 25.815 40.3549 28.4853 40.2845C31.0383 40.261 33.1171 40.9636 34.9681 42.7747C35.2995 43.1055 35.627 43.439 35.9498 43.7782C37.0093 44.8867 37.8493 45.5175 39.4375 45.5625C40.5471 45.5567 41.2934 45.351 42.1667 44.6666C42.2998 44.529 42.2998 44.529 42.4355 44.3886C42.6667 44.1666 42.6667 44.1666 43 44.1666C43.0567 44.0268 43.0567 44.0268 43.1146 43.8841C44.0311 42.2748 46.0711 41.0547 47.7774 40.4362C49.7494 39.9149 52.2123 40.0928 54.0176 41.0293C55.371 41.8822 56.4701 42.937 57.5762 44.0807C58.741 45.233 59.5807 45.5767 61.2227 45.5719C62.2101 45.5421 62.7734 45.3111 63.5 44.6666C63.6265 44.5601 63.7531 44.4535 63.8835 44.3437C64.4211 43.8791 64.9351 43.3982 65.4375 42.8958C66.9436 41.3897 68.5413 40.3029 70.7308 40.2782C73.6017 40.2969 75.646 40.8031 77.7266 42.8782C77.912 43.0676 78.0969 43.2575 78.2813 43.4479C79.497 44.6953 80.4307 45.5356 82.25 45.625C84.331 45.5188 85.337 44.3579 86.7074 42.937C87.9183 41.7022 89.2721 40.6904 91 40.3333C91.66 40.3333 92.32 40.3333 93 40.3333C93 41.6533 93 42.9733 93 44.3333C92.7044 44.3883 92.4088 44.4433 92.1042 44.5C90.7152 44.8472 89.7412 45.6333 88.8542 46.7395C87.5111 48.3984 85.454 49.5766 83.3333 49.8333C80.4741 49.9927 78.3796 49.2954 76.2396 47.3854C75.7057 46.8776 75.1877 46.3543 74.6667 45.8333C73.5492 44.769 72.6713 44.4217 71.1113 44.4596C69.3965 44.6153 68.1399 46.0082 67 47.177C65.2122 48.9897 63.3614 49.851 60.7708 49.8958C57.909 49.7961 55.9273 48.4973 53.9704 46.4491C52.8247 45.2536 51.8414 44.4785 50.1458 44.4062C48.0431 44.5135 46.7889 46.0221 45.3958 47.4583C43.7555 49.1159 41.763 49.827 39.4583 49.8958C36.5445 49.8462 34.6969 48.4408 32.6667 46.5C32.4646 46.2888 32.2632 46.077 32.0625 45.8645C31.1624 44.9453 30.0167 44.482 28.7396 44.427C26.7163 44.4681 25.649 45.8279 24.3286 47.1938C23.4713 48.0666 22.6435 48.704 21.5 49.1666C21.3769 49.2199 21.2538 49.2732 21.127 49.3281C19.2136 50.1064 17.0908 50.0464 15.1602 49.3756C13.4654 48.6579 12.1437 47.3334 10.875 46.0312C9.86815 45.0102 8.90365 44.5672 7.5 44.3333C7.5 43.0133 7.5 41.6933 7.5 40.3333Z" fill="#E8512F"/>
	<path d="M7.5 3.66667C10.1272 3.66667 12.0416 4.73033 13.8757 6.54102C14.0267 6.69248 14.1777 6.84395 14.3333 7C15.5665 8.17997 16.4537 8.99477 18.2188 9.09375C20.1538 9.02984 21.1768 7.85645 22.446 6.54366C23.6921 5.26996 25.0693 4.24588 26.8333 3.83333C26.9915 3.79552 27.1496 3.75771 27.3125 3.71875C29.4617 3.50383 31.6721 3.7683 33.5 5C34.4298 5.77208 35.2869 6.6086 36.125 7.47917C37.061 8.43348 38.0803 9.01685 39.4271 9.0625C41.4162 9.02205 42.4087 7.97249 43.7197 6.61178C45.6099 4.66761 47.6058 3.68058 50.3333 3.60417C52.8926 3.62926 54.8365 4.80709 56.5966 6.59025C56.7671 6.76494 56.9372 6.94001 57.1068 7.11548C58.1623 8.195 59.2089 9.00991 60.7604 9.0625C62.4099 9.03478 63.3542 8.36809 64.4792 7.20833C64.5625 7.12116 64.6458 7.03399 64.7316 6.94417C66.7434 4.84992 68.7981 3.70533 71.7083 3.59375C74.9915 3.64676 77.266 5.72741 79.4388 7.94857C80.2464 8.73616 81.0164 9.04155 82.1458 9.09375C84.3733 8.99885 85.7655 7.39129 87.2546 5.91602C88.9759 4.26721 90.6342 3.71446 93 3.66667C93 5.04167 93 6.41667 93 7.83333C92.34 7.99833 91.68 8.16333 91 8.33333C90.67 8.58083 90.67 8.58083 90.3333 8.83333C90.2233 8.83333 90.1133 8.83333 90 8.83333C90 8.94333 90 9.05333 90 9.16667C89.7552 9.40755 89.7552 9.40755 89.4167 9.6875C88.916 10.1106 88.4525 10.5468 88 11.0208C86.5351 12.4886 84.772 13.178 82.6954 13.229C82.0731 13.2293 81.4543 13.2057 80.8333 13.1667C80.6731 13.1568 80.5128 13.1469 80.3477 13.1367C78.3279 12.867 76.8415 11.4071 75.4957 10.0039C74.3267 8.79095 73.2905 7.98644 71.5625 7.9375C71.2705 7.92525 71.2705 7.92525 70.9727 7.91276C69.4671 8.1182 68.5248 9.07125 67.5313 10.1458C66.4939 11.2222 65.5486 12.0556 64.1667 12.6667C64.0386 12.7255 63.9106 12.7844 63.7786 12.8451C61.9071 13.5517 59.189 13.4195 57.3711 12.6335C56.1567 12.0007 55.2892 11.1707 54.3492 10.1908C53.3922 9.19822 52.2946 8.06755 50.8516 7.96615C49.0072 7.94041 48.1 8.34093 46.7552 9.58854C46.3605 9.97351 45.9828 10.3702 45.6042 10.7708C44.0323 12.3566 42.0407 13.2122 39.8178 13.2532C39.5883 13.2516 39.5883 13.2516 39.3542 13.25C39.1937 13.2492 39.0331 13.2483 38.8678 13.2475C36.9718 13.2011 35.5976 12.5501 34.1667 11.3333C34.0659 11.2526 33.9651 11.1718 33.8613 11.0885C33.354 10.673 32.9155 10.2474 32.5 9.73958C31.7149 8.79322 30.736 8.07174 29.4857 7.94987C27.4163 7.9425 26.4555 8.58263 25 10C24.7532 10.2567 24.5066 10.5136 24.2604 10.7708C22.451 12.5898 20.5952 13.206 18.0833 13.2396C16.7822 13.2324 15.6607 13.1386 14.5 12.5C14.3793 12.4351 14.2585 12.3702 14.1341 12.3034C12.9907 11.6108 12.0484 10.6476 11.082 9.73397C10.7501 9.4217 10.4133 9.11546 10.0729 8.8125C9.97645 8.72613 9.87999 8.63977 9.7806 8.55078C9.00534 7.95 8.57269 7.96742 7.5 7.83333C7.5 6.45833 7.5 5.08333 7.5 3.66667Z" fill="#E8512F"/>
	<path d="M7.5 12.8333C10.5532 13.0878 12.1633 13.9584 14.2604 16.1042C15.3518 17.2187 16.4146 18.181 18.0313 18.2083C20.0001 18.1697 20.9899 17.1637 22.3333 15.8333C22.5247 15.6288 22.7157 15.424 22.9063 15.2188C24.461 13.6412 26.4213 12.7975 28.6042 12.75C30.7965 12.7588 32.6268 13.4345 34.3333 14.8333C34.4427 14.9197 34.552 15.0061 34.6647 15.0951C35.1336 15.4786 35.5087 15.8444 35.8854 16.3229C36.5328 17.1413 37.5136 17.8379 38.5 18.1667C39.8648 18.2813 40.9781 18.2105 42.0723 17.3464C42.7452 16.7523 43.3764 16.1242 44 15.4792C45.7558 13.7128 47.7787 12.826 50.2708 12.7917C53.5221 12.8326 55.5566 14.5298 57.765 16.7715C58.0901 17.0913 58.3993 17.3638 58.7708 17.625C58.8658 17.6929 58.9608 17.7608 59.0586 17.8307C59.979 18.3978 61.2313 18.3096 62.2474 18.0684C63.4142 17.5809 64.2141 16.6581 65.0768 15.7664C66.8471 13.9417 68.737 12.8445 71.3229 12.7813C74.3249 12.8121 76.3371 14.111 78.422 16.0999C78.8023 16.4627 79.1864 16.821 79.5729 17.1771C79.7634 17.3553 79.7634 17.3553 79.9577 17.5371C80.9292 18.3032 81.9774 18.2998 83.1667 18.1667C84.5137 17.8294 85.3733 16.8401 86.3013 15.8737C87.0749 15.0716 87.8796 14.4151 88.8333 13.8333C89.0354 13.7038 89.0354 13.7038 89.2415 13.5716C89.674 13.3292 90.0646 13.1839 90.5417 13.0521C90.7595 12.9892 90.7595 12.9892 90.9818 12.9251C91.5 12.8333 91.5 12.8333 93 12.8333C93 14.2083 93 15.5833 93 17C92.0925 17.165 92.0925 17.165 91.1667 17.3333C90.316 17.8845 89.6448 18.5166 88.943 19.2377C87.1068 21.1225 85.1844 22.3105 82.487 22.4118C80.0201 22.4407 78.1822 21.784 76.3757 20.0549C75.9643 19.6485 75.5568 19.2391 75.1576 18.8207C74.2523 17.8786 73.4608 17.2164 72.1263 17.1328C71.9265 17.1302 71.7267 17.1277 71.5208 17.125C71.3219 17.1207 71.1229 17.1164 70.918 17.112C69.8981 17.2074 69.2563 17.6834 68.5208 18.3646C68.3767 18.4971 68.2325 18.6297 68.084 18.7663C67.7151 19.1202 67.3623 19.4835 67.0104 19.8542C65.3972 21.4869 63.4344 22.3405 61.1475 22.3652C58.2488 22.3606 56.6082 21.5404 54.5 19.5C54.2979 19.2958 54.0964 19.091 53.8958 18.8854C52.7758 17.7468 51.8528 17.1256 50.2292 17.0938C48.6569 17.0904 47.9235 17.5767 46.8203 18.6745C46.5386 18.9578 46.2579 19.2421 45.9788 19.5281C44.2879 21.2482 42.3826 22.3405 39.9362 22.3652C36.9745 22.3609 35.3265 21.5904 33.1667 19.5C32.9646 19.2958 32.7631 19.091 32.5625 18.8854C31.3741 17.6802 30.5051 17.151 28.8021 17.0938C27.2608 17.0902 26.5452 17.6205 25.4863 18.6745C25.2048 18.9578 24.9245 19.2422 24.6455 19.5281C22.932 21.2709 21.0234 22.3336 18.5521 22.3737C16.0559 22.3817 14.2487 21.9015 12.4063 20.1009C12.1019 19.7966 11.8016 19.4897 11.5057 19.1772C10.3017 17.913 9.25723 17.251 7.5 17C7.5 15.625 7.5 14.25 7.5 12.8333Z" fill="#E8512F"/>
	<path d="M57.4004 75.9276C57.6484 75.9269 57.8963 75.926 58.1443 75.925C58.6619 75.9235 59.1795 75.9239 59.6971 75.9256C60.3563 75.9275 61.0153 75.9241 61.6745 75.9193C62.1859 75.9162 62.6974 75.9162 63.2089 75.9172C63.4517 75.9172 63.6946 75.9162 63.9374 75.9141C65.8887 75.8998 67.4268 76.1495 68.8848 77.5221C69.7871 78.5181 70.0194 79.4766 70.0269 80.7921C70.0281 80.9597 70.0281 80.9597 70.0294 81.1307C70.0318 81.4994 70.0329 81.8682 70.0339 82.2369C70.0348 82.4943 70.0358 82.7517 70.0367 83.0092C70.0385 83.5488 70.0395 84.0885 70.0401 84.6282C70.041 85.3171 70.045 86.0059 70.0497 86.6948C70.0528 87.2268 70.0537 87.7587 70.0539 88.2906C70.0544 88.5444 70.0558 88.7982 70.058 89.052C70.0721 90.8109 70.0027 92.2511 68.8333 93.6666C67.6755 94.5902 66.6358 95.0391 65.1394 95.0483C64.9668 95.05 64.9668 95.05 64.7908 95.0517C64.413 95.0549 64.0353 95.0555 63.6576 95.0559C63.3931 95.057 63.1287 95.0581 62.8643 95.0593C62.3109 95.0613 61.7576 95.0619 61.2042 95.0617C60.4977 95.0616 59.7913 95.0662 59.0849 95.0719C58.5389 95.0757 57.993 95.0763 57.4471 95.0761C57.1868 95.0765 56.9264 95.078 56.6661 95.0806C55.0266 95.0954 53.8429 95.0585 52.5521 93.9478C51.5191 92.7473 50.9633 91.7979 50.9489 90.1599C50.9476 90.047 50.9462 89.9341 50.9447 89.8178C50.9407 89.4471 50.9393 89.0764 50.9382 88.7056C50.9367 88.4458 50.9351 88.1859 50.9336 87.926C50.9309 87.3819 50.9296 86.8378 50.9291 86.2936C50.9282 85.6002 50.9219 84.907 50.9143 84.2136C50.9093 83.6768 50.9081 83.1401 50.908 82.6033C50.9073 82.3478 50.9052 82.0924 50.9017 81.8371C50.8797 80.0916 51.0604 78.7797 52.1901 77.3964C52.3061 77.2965 52.4221 77.1966 52.5417 77.0937C52.7131 76.9393 52.7131 76.9393 52.888 76.7818C54.2914 75.8934 55.7913 75.9233 57.4004 75.9276Z" fill="#E85230"/>
	<path d="M55.7374 53.4733C55.8453 53.4724 55.9532 53.4716 56.0645 53.4707C56.4217 53.4683 56.7789 53.4672 57.1361 53.4663C57.3855 53.4653 57.6349 53.4643 57.8843 53.4634C58.4078 53.4616 58.9314 53.4606 59.455 53.4601C60.122 53.4592 60.789 53.4552 61.456 53.4504C61.9718 53.4473 62.4875 53.4464 63.0033 53.4462C63.2489 53.4457 63.4946 53.4444 63.7402 53.4421C65.5174 53.4273 67.2158 53.4285 68.5729 54.7189C68.7068 54.842 68.8406 54.9651 68.9785 55.0919C69.9053 56.1581 70.0189 57.2657 70.0269 58.6328C70.0281 58.7957 70.0281 58.7957 70.0294 58.9618C70.0318 59.3179 70.033 59.6739 70.0339 60.0301C70.0346 60.2137 70.0346 60.2137 70.0353 60.4011C70.0378 61.0489 70.0393 61.6967 70.0401 62.3444C70.041 63.0105 70.045 63.6766 70.0497 64.3427C70.0528 64.8577 70.0537 65.3728 70.054 65.8878C70.0545 66.1333 70.0558 66.3787 70.058 66.6241C70.0716 68.2648 70.0497 69.6493 68.9167 70.948C68.8187 71.0655 68.7208 71.1831 68.6198 71.3041C67.0961 72.5235 65.5016 72.6253 63.6244 72.6108C63.3657 72.6113 63.107 72.6122 62.8483 72.6132C62.3091 72.6144 61.77 72.6127 61.2309 72.6087C60.544 72.604 59.8574 72.6067 59.1705 72.6117C58.6373 72.6148 58.1042 72.6138 57.5709 72.6116C57.3178 72.6111 57.0648 72.6117 56.8117 72.6137C55.1541 72.6237 53.7535 72.5108 52.4825 71.3449C51.015 69.8368 50.8989 68.2071 50.9115 66.1935C50.911 65.938 50.9104 65.6826 50.9096 65.4272C50.9086 64.8938 50.91 64.3606 50.9131 63.8273C50.9169 63.1479 50.9147 62.4687 50.9107 61.7894C50.9083 61.2624 50.9091 60.7356 50.9108 60.2086C50.9113 59.9583 50.9107 59.708 50.9092 59.4578C50.9007 57.716 50.9955 56.1982 52.2084 54.8543C53.2321 53.9188 54.3605 53.4813 55.7374 53.4733Z" fill="#E85231"/>
	<path d="M78.8553 53.2822C78.9698 53.2808 79.0843 53.2794 79.2023 53.2779C79.5784 53.274 79.9545 53.2725 80.3307 53.2714C80.5943 53.2699 80.8579 53.2684 81.1216 53.2668C81.6735 53.2641 82.2255 53.2628 82.7775 53.2623C83.481 53.2614 84.1843 53.2551 84.8877 53.2475C85.4323 53.2425 85.9767 53.2413 86.5213 53.2412C86.7804 53.2405 87.0395 53.2384 87.2986 53.2349C88.8153 53.2161 90.0292 53.298 91.3333 54.1666C91.4914 54.2697 91.6496 54.3728 91.8125 54.4791C92.7753 55.4419 93.2065 56.6301 93.2151 57.9723C93.2162 58.0836 93.2173 58.1948 93.2185 58.3094C93.2216 58.6757 93.2223 59.0418 93.2226 59.4081C93.2237 59.6645 93.2248 59.9209 93.226 60.1772C93.228 60.7145 93.2286 61.2518 93.2284 61.7891C93.2284 62.4737 93.2329 63.1582 93.2387 63.8427C93.2424 64.3725 93.243 64.9023 93.2429 65.4321C93.2433 65.6842 93.2447 65.9364 93.2473 66.1885C93.2654 68.1288 93.0714 69.7558 91.6791 71.2095C90.2514 72.4086 88.6342 72.4538 86.858 72.4322C86.6064 72.4319 86.3548 72.4319 86.1032 72.4322C85.579 72.4319 85.0549 72.4288 84.5307 72.4236C83.8626 72.4169 83.1946 72.4162 82.5264 72.4175C82.0079 72.418 81.4895 72.4159 80.971 72.4131C80.7248 72.4119 80.4785 72.4114 80.2323 72.4116C78.4052 72.4099 76.859 72.3219 75.4655 71.0175C74.5757 69.9726 74.1484 68.7684 74.1371 67.4139C74.136 67.3043 74.1349 67.1948 74.1338 67.0819C74.1305 66.7193 74.1286 66.3567 74.1269 65.994C74.1259 65.8075 74.1259 65.8075 74.1249 65.6173C74.1214 64.9583 74.119 64.2993 74.1174 63.6404C74.1156 62.9633 74.1099 62.2862 74.1032 61.6091C74.0989 61.0856 74.0975 60.5621 74.0969 60.0386C74.0961 59.7893 74.0942 59.5399 74.0911 59.2906C74.0718 57.6446 74.1248 56.1722 75.2291 54.8645C75.3735 54.7442 75.5179 54.6238 75.6666 54.4999C75.8282 54.3521 75.9898 54.2043 76.1562 54.052C77.0177 53.4015 77.7916 53.2913 78.8553 53.2822Z" fill="#E85230"/>
	<path d="M78.8453 76.1208C78.9587 76.1199 79.0722 76.1191 79.189 76.1182C79.5614 76.1159 79.9337 76.116 80.306 76.1164C80.5667 76.1158 80.8274 76.1151 81.0881 76.1143C81.6336 76.113 82.1791 76.1131 82.7246 76.1139C83.421 76.1149 84.1173 76.1121 84.8137 76.1082C85.3519 76.1058 85.8901 76.1056 86.4283 76.1061C86.6849 76.1061 86.9415 76.1052 87.1981 76.1035C89.191 76.092 90.6482 76.2797 92.1667 77.6666C92.9522 78.6588 93.2063 79.5807 93.2204 80.8346C93.2229 81.0031 93.2229 81.0031 93.2254 81.1751C93.2302 81.5442 93.2325 81.9133 93.2344 82.2824C93.2358 82.4731 93.2358 82.4731 93.2372 82.6677C93.2422 83.3411 93.2453 84.0145 93.2468 84.6879C93.2486 85.3783 93.2566 86.0685 93.2661 86.7588C93.2723 87.2942 93.274 87.8295 93.2745 88.3649C93.2755 88.6191 93.2782 88.8733 93.2826 89.1275C93.3107 90.8709 93.1169 92.4055 91.9211 93.7828C90.9453 94.6512 90.0263 95.0823 88.7313 95.0914C88.6102 95.0931 88.4892 95.0948 88.3645 95.0966C87.9675 95.1012 87.5708 95.1009 87.1738 95.1001C86.8955 95.1014 86.6172 95.1029 86.3389 95.1045C85.7565 95.107 85.1742 95.1069 84.5918 95.1051C83.8492 95.1032 83.1069 95.1088 82.3644 95.1166C81.7897 95.1215 81.2151 95.1218 80.6404 95.1207C80.3668 95.1209 80.0932 95.1226 79.8197 95.126C77.9638 95.1461 76.6576 94.9384 75.2604 93.6151C75.1745 93.498 75.0886 93.3809 75 93.2603C74.9106 93.1436 74.8213 93.027 74.7292 92.9068C74.2355 92.0302 74.1246 91.146 74.1183 90.1536C74.1171 90.0421 74.116 89.9305 74.1149 89.8156C74.1117 89.4504 74.1111 89.0852 74.1107 88.7199C74.1096 88.4636 74.1085 88.2073 74.1073 87.951C74.1053 87.415 74.1047 86.8791 74.1049 86.3431C74.1049 85.6596 74.1004 84.9762 74.0947 84.2927C74.0909 83.7637 74.0903 83.2346 74.0904 82.7056C74.0901 82.4537 74.0886 82.2019 74.086 81.9501C74.068 80.0219 74.2862 78.5799 75.6667 77.1666C76.6825 76.3885 77.5736 76.1256 78.8453 76.1208Z" fill="#E8502F"/>
	<path d="M138 3.83325C145.667 3.83325 145.667 3.83325 147.066 5.01709C148.114 6.25511 148.103 7.94369 148.083 9.47909C148.086 9.67524 148.088 9.87139 148.091 10.0735C148.084 11.7882 147.867 13.5276 146.667 14.8333C146.208 15.052 146.208 15.052 145.833 15.1666C146.005 15.225 146.177 15.2835 146.354 15.3437C147.206 15.7084 147.74 16.3543 148.176 17.1583C148.411 17.9187 148.388 18.6595 148.389 19.4511C148.39 19.6243 148.392 19.7975 148.393 19.976C148.394 20.3421 148.395 20.7081 148.395 21.0742C148.396 21.6317 148.402 22.1889 148.408 22.7463C148.409 23.1028 148.41 23.4592 148.41 23.8157C148.413 23.9812 148.415 24.1467 148.417 24.3172C148.409 25.6132 148.103 26.4691 147.281 27.4687C144.871 29.4304 140.4 28.4999 138 28.4999C138 20.3599 138 12.2199 138 3.83325Z" fill="#29435D"/>
	<path d="M174.167 54.5C181.318 54.5 181.318 54.5 182.76 55.9167C183.476 56.7765 183.36 57.861 183.363 58.9214C183.364 59.1598 183.364 59.1598 183.366 59.403C183.369 59.9277 183.371 60.4525 183.373 60.9772C183.374 61.1568 183.374 61.3364 183.375 61.5215C183.379 62.4718 183.381 63.4222 183.383 64.3725C183.384 65.3527 183.39 66.3328 183.397 67.313C183.401 68.0681 183.402 68.8232 183.403 69.5783C183.404 69.9396 183.406 70.3008 183.409 70.6621C183.413 71.1683 183.413 71.6743 183.412 72.1805C183.414 72.3287 183.416 72.4769 183.418 72.6296C183.408 73.872 183.082 74.7514 182.198 75.6354C179.746 77.3182 177.223 76.6667 174.167 76.6667C174.167 69.3517 174.167 62.0367 174.167 54.5Z" fill="#29425D"/>
	<path d="M42.5 53.3333C43.875 53.3333 45.25 53.3333 46.6667 53.3333C46.6667 67.1383 46.6667 80.9433 46.6667 95.1666C45.2917 95.1666 43.9167 95.1666 42.5 95.1666C42.5 81.3616 42.5 67.5566 42.5 53.3333Z" fill="#E85332"/>
	<path d="M28.3333 53.3333C29.7083 53.3333 31.0833 53.3333 32.5 53.3333C32.5 67.1383 32.5 80.9433 32.5 95.1666C31.125 95.1666 29.75 95.1666 28.3333 95.1666C28.3333 81.3616 28.3333 67.5566 28.3333 53.3333Z" fill="#E85231"/>
	<path d="M21.3333 53.3333C22.7083 53.3333 24.0833 53.3333 25.5 53.3333C25.5 67.1383 25.5 80.9433 25.5 95.1666C24.125 95.1666 22.75 95.1666 21.3333 95.1666C21.3333 81.3616 21.3333 67.5566 21.3333 53.3333Z" fill="#E85331"/>
	<path d="M14.3333 53.3333C15.6533 53.3333 16.9733 53.3333 18.3333 53.3333C18.3333 67.0833 18.3333 80.8333 18.3333 94.9999C17.0133 94.9999 15.6933 94.9999 14.3333 94.9999C14.3333 81.2499 14.3333 67.4999 14.3333 53.3333Z" fill="#E8502E"/>
	<path d="M7.66669 53.3333C8.98669 53.3333 10.3067 53.3333 11.6667 53.3333C11.6667 67.0833 11.6667 80.8333 11.6667 94.9999C10.3467 94.9999 9.02669 94.9999 7.66669 94.9999C7.66669 81.2499 7.66669 67.4999 7.66669 53.3333Z" fill="#E84F2E"/>
	<path d="M35.5 53.5C36.82 53.5 38.14 53.5 39.5 53.5C39.5 67.195 39.5 80.89 39.5 95C38.18 95 36.86 95 35.5 95C35.5 81.305 35.5 67.61 35.5 53.5Z" fill="#E74F2D"/>
	<path d="M122.667 3.83325C123.877 3.83325 125.087 3.83325 126.333 3.83325C126.775 5.97551 127.12 8.11396 127.406 10.2812C127.433 10.4804 127.433 10.4804 127.459 10.6837C127.486 10.8848 127.486 10.8848 127.513 11.09C127.549 11.3619 127.585 11.6337 127.62 11.9055C127.638 12.0404 127.656 12.1752 127.674 12.3142C127.847 13.6141 128.036 14.9113 128.229 16.2083C128.297 16.6668 128.365 17.1253 128.433 17.5839C128.451 17.7039 128.468 17.8239 128.487 17.9476C128.735 19.6231 128.979 21.2991 129.222 22.9755C129.275 23.3435 129.329 23.7114 129.382 24.0792C129.458 24.5967 129.533 25.1144 129.607 25.6321C129.63 25.7867 129.653 25.9413 129.677 26.1006C129.697 26.246 129.718 26.3913 129.739 26.5411C129.758 26.6665 129.776 26.7918 129.795 26.921C129.844 27.4452 129.833 27.9735 129.833 28.4999C128.953 28.4999 128.073 28.4999 127.167 28.4999C126.947 27.0149 126.727 25.5299 126.5 23.9999C124.96 23.9999 123.42 23.9999 121.833 23.9999C121.778 24.7149 121.723 25.4299 121.667 26.1666C121.613 26.6013 121.555 27.0356 121.49 27.4687C121.46 27.6657 121.431 27.8627 121.4 28.0657C121.378 28.209 121.356 28.3523 121.333 28.4999C120.783 28.4999 120.233 28.4999 119.667 28.4999C119.809 25.198 120.291 21.9306 120.753 18.6611C120.948 17.2624 121.112 15.8626 121.26 14.4583C121.386 13.272 121.523 12.0983 121.75 10.927C122.103 9.07788 122.26 7.2023 122.443 5.3302C122.501 4.82896 122.584 4.3309 122.667 3.83325Z" fill="#28415C"/>
	<path d="M153.5 3.83325C154.71 3.83325 155.92 3.83325 157.167 3.83325C157.712 7.31622 158.241 10.8 158.719 14.2928C158.752 14.5368 158.786 14.7807 158.819 15.0247C158.843 15.1987 158.843 15.1987 158.867 15.3763C158.99 16.2696 159.122 17.161 159.26 18.052C159.496 19.5712 159.684 21.0961 159.876 22.6212C160.068 24.1398 160.287 25.6449 160.581 27.1471C160.667 27.6666 160.667 27.6666 160.667 28.4999C159.732 28.4999 158.797 28.4999 157.833 28.4999C157.667 26.9999 157.5 25.4999 157.333 23.9999C155.793 23.9999 154.253 23.9999 152.667 23.9999C152.509 25.169 152.509 25.169 152.353 26.3383C152.333 26.4851 152.313 26.6319 152.292 26.7831C152.272 26.9324 152.252 27.0816 152.231 27.2354C152.168 27.6603 152.088 28.0793 152 28.4999C151.45 28.4999 150.9 28.4999 150.333 28.4999C150.55 26.3712 150.794 24.2476 151.062 22.1249C151.1 21.8309 151.137 21.5369 151.174 21.2428C151.453 19.0258 151.736 16.8093 152.025 14.5935C152.134 13.7496 152.243 12.9057 152.352 12.0617C152.441 11.3695 152.531 10.6773 152.621 9.98508C152.665 9.645 152.709 9.3049 152.752 8.96479C152.973 7.24852 153.198 5.53752 153.5 3.83325Z" fill="#28415C"/>
	<path d="M140.667 54.6667C147.167 54.6667 147.167 54.6667 148.833 55.6667C149.463 56.5975 149.601 57.3384 149.589 58.4441C149.589 58.5767 149.59 58.7093 149.59 58.846C149.591 59.1241 149.59 59.4023 149.587 59.6804C149.583 60.1044 149.587 60.5279 149.591 60.9519C149.591 61.2236 149.59 61.4953 149.589 61.767C149.59 61.8926 149.591 62.0181 149.593 62.1474C149.574 63.2094 149.205 63.8055 148.458 64.5313C147.668 65.0522 146.949 65.3334 146 65.3334C146.207 65.9656 146.416 66.5975 146.625 67.2292C146.683 67.4061 146.741 67.5829 146.801 67.7651C147.123 68.7361 147.468 69.6885 147.856 70.6353C148.044 71.1104 148.192 71.5926 148.333 72.0834C148.532 72.7504 148.749 73.3907 149.021 74.0313C149.359 74.8412 149.519 75.6363 149.667 76.5001C148.842 76.5001 148.017 76.5001 147.167 76.5001C146.897 75.7152 146.627 74.9302 146.358 74.1451C146.267 73.8793 146.175 73.6134 146.084 73.3476C145.621 71.9989 145.158 70.6498 144.705 69.2976C144.641 69.1068 144.577 68.9161 144.511 68.7195C144.392 68.3506 144.28 67.9794 144.175 67.6065C143.971 66.898 143.733 66.1995 143.5 65.5001C143.445 69.1851 143.39 72.8701 143.333 76.6667C142.453 76.6667 141.573 76.6667 140.667 76.6667C140.667 69.4067 140.667 62.1467 140.667 54.6667Z" fill="#26405B"/>
	<path d="M162.833 3.83325C163.768 3.83325 164.703 3.83325 165.667 3.83325C165.667 4.11045 165.668 4.38766 165.669 4.67326C165.675 7.28503 165.684 9.89677 165.697 12.5085C165.704 13.8513 165.709 15.194 165.712 16.5367C165.714 17.7073 165.719 18.8779 165.726 20.0484C165.73 20.668 165.732 21.2876 165.732 21.9072C165.732 22.5995 165.737 23.2917 165.742 23.984C165.742 24.1886 165.741 24.3933 165.74 24.6041C165.753 25.712 165.823 26.4387 166.5 27.3333C166.792 27.5175 166.792 27.5175 167.167 27.4999C167.383 27.5102 167.6 27.5205 167.823 27.5312C168.401 27.5183 168.838 27.4918 169.333 27.1666C169.955 26.0944 169.907 25.0477 169.905 23.8326C169.907 23.6163 169.909 23.3999 169.911 23.177C169.915 22.5865 169.917 21.996 169.918 21.4055C169.919 20.7874 169.924 20.1692 169.928 19.5511C169.935 18.3818 169.94 17.2125 169.944 16.0432C169.948 14.7115 169.955 13.3798 169.963 12.0481C169.978 9.30981 169.99 6.57154 170 3.83325C170.99 3.83325 171.98 3.83325 173 3.83325C173.012 6.65693 173.021 9.48061 173.026 12.3043C173.028 13.6155 173.032 14.9266 173.038 16.2378C173.043 17.3809 173.046 18.5241 173.047 19.6672C173.048 20.2722 173.049 20.8772 173.053 21.4822C173.057 22.1585 173.057 22.8347 173.057 23.511C173.059 23.7103 173.06 23.9097 173.062 24.1151C173.058 25.3293 172.997 26.3751 172.212 27.3619C172.108 27.4487 172.003 27.5355 171.896 27.6249C171.743 27.7577 171.743 27.7577 171.587 27.8931C170.352 28.6961 169.3 28.9409 167.833 28.9166C167.6 28.9205 167.6 28.9205 167.362 28.9244C165.856 28.916 164.749 28.4262 163.585 27.4921C162.7 26.346 162.764 25.0412 162.777 23.6624C162.777 23.4476 162.776 23.2328 162.776 23.0115C162.776 22.4262 162.779 21.8409 162.783 21.2556C162.786 20.6426 162.786 20.0296 162.787 19.4165C162.788 18.2573 162.792 17.098 162.797 15.9388C162.803 14.6184 162.806 13.2979 162.808 11.9775C162.813 9.26273 162.822 6.54799 162.833 3.83325Z" fill="#27405B"/>
	<path d="M154.333 54.4999C154.858 54.4951 155.382 54.4921 155.906 54.4895C156.056 54.4881 156.206 54.4867 156.36 54.4852C156.502 54.4847 156.644 54.4842 156.791 54.4836C156.923 54.4827 157.055 54.4819 157.19 54.481C157.5 54.4999 157.5 54.4999 157.667 54.6665C157.731 55.0398 157.785 55.4148 157.836 55.7902C157.852 55.9072 157.868 56.0241 157.884 56.1446C157.919 56.3994 157.953 56.6542 157.988 56.9091C158.061 57.4571 158.136 58.005 158.211 58.5529C158.25 58.8373 158.289 59.1218 158.327 59.4063C158.514 60.7786 158.709 62.1498 158.906 63.5207C158.975 63.9981 159.043 64.4756 159.112 64.953C159.129 65.0745 159.147 65.1961 159.165 65.3213C159.288 66.1768 159.409 67.0325 159.529 67.8884C159.618 68.5264 159.708 69.1643 159.799 69.8023C159.842 70.1111 159.885 70.42 159.928 70.729C159.989 71.1618 160.05 71.5945 160.111 72.0272C160.129 72.1541 160.146 72.2809 160.164 72.4116C160.273 73.1757 160.42 73.9226 160.598 74.6736C160.687 75.0958 160.7 75.4965 160.687 75.927C160.684 76.0681 160.681 76.2093 160.678 76.3547C160.675 76.4576 160.671 76.5605 160.667 76.6665C160.281 76.671 159.896 76.6743 159.51 76.677C159.296 76.6789 159.081 76.6808 158.86 76.6828C158.333 76.6665 158.333 76.6665 158.167 76.4999C158.099 76.1124 158.042 75.7231 157.99 75.3332C157.96 75.1201 157.931 74.907 157.9 74.6874C157.83 73.9613 157.833 73.2294 157.833 72.4999C156.403 72.4999 154.973 72.4999 153.5 72.4999C153.5 72.9949 153.5 73.4899 153.5 73.9999C153.428 74.4825 153.349 74.9506 153.25 75.427C153.214 75.6076 153.214 75.6076 153.178 75.7919C153.12 76.0837 153.06 76.3752 153 76.6665C152.505 76.6665 152.01 76.6665 151.5 76.6665C151.476 75.7951 151.567 74.9835 151.719 74.1249C151.938 72.8162 152.1 71.5068 152.24 70.1874C152.426 68.4413 152.649 66.7037 152.896 64.9652C153.068 63.7368 153.231 62.5077 153.383 61.2766C153.401 61.1279 153.42 60.9793 153.439 60.8262C153.529 60.0906 153.619 59.355 153.708 58.6192C153.877 57.2374 154.056 55.8651 154.333 54.4999Z" fill="#29425D"/>
	<path d="M79.4648 80.145C79.7743 80.1442 79.7743 80.1442 80.0901 80.1434C80.317 80.1437 80.5439 80.1441 80.7708 80.1445C81.0019 80.1443 81.2329 80.1442 81.464 80.144C81.9487 80.1437 82.4335 80.1441 82.9183 80.1449C83.541 80.1458 84.1637 80.1453 84.7864 80.1443C85.2636 80.1437 85.7409 80.1439 86.2181 80.1443C86.4478 80.1444 86.6775 80.1443 86.9071 80.1439C87.2276 80.1435 87.548 80.1442 87.8685 80.145C88.1425 80.1452 88.1425 80.1452 88.4221 80.1454C88.8333 80.1666 88.8333 80.1666 89 80.3333C89.0165 80.6596 89.0213 80.9866 89.0216 81.3134C89.0221 81.5231 89.0226 81.7327 89.0232 81.9488C89.0229 82.1794 89.0225 82.41 89.0221 82.6406C89.0223 82.8753 89.0224 83.1101 89.0226 83.3449C89.0229 83.8375 89.0225 84.3301 89.0217 84.8228C89.0208 85.4556 89.0213 86.0883 89.0223 86.7211C89.0229 87.2061 89.0227 87.6911 89.0223 88.176C89.0222 88.4094 89.0223 88.6428 89.0227 88.8762C89.0231 89.2018 89.0224 89.5275 89.0216 89.8531C89.0214 90.0388 89.0213 90.2244 89.0212 90.4157C89 90.8333 89 90.8333 88.8333 90.9999C88.5121 91.0165 88.1902 91.0213 87.8685 91.0215C87.6622 91.022 87.4558 91.0225 87.2433 91.0231C87.0163 91.0228 86.7894 91.0224 86.5625 91.0221C86.3315 91.0222 86.1004 91.0223 85.8694 91.0225C85.3846 91.0228 84.8998 91.0224 84.415 91.0217C83.7923 91.0207 83.1697 91.0213 82.547 91.0223C82.0697 91.0229 81.5925 91.0227 81.1152 91.0222C80.8855 91.0221 80.6559 91.0223 80.4262 91.0226C80.1058 91.0231 79.7853 91.0223 79.4648 91.0215C79.1908 91.0213 79.1908 91.0213 78.9112 91.0211C78.5 90.9999 78.5 90.9999 78.3333 90.8333C78.3168 90.5069 78.312 90.1799 78.3118 89.8531C78.3112 89.6434 78.3107 89.4338 78.3102 89.2178C78.3105 88.9872 78.3108 88.7566 78.3112 88.526C78.3111 88.2912 78.3109 88.0564 78.3107 87.8216C78.3105 87.329 78.3108 86.8364 78.3116 86.3438C78.3126 85.711 78.312 85.0782 78.311 84.4454C78.3104 83.9604 78.3106 83.4755 78.311 82.9905C78.3111 82.7571 78.311 82.5237 78.3106 82.2903C78.3102 81.9647 78.311 81.6391 78.3118 81.3134C78.3119 81.1277 78.312 80.9421 78.3122 80.7508C78.3519 79.9673 78.7769 80.1455 79.4648 80.145Z" fill="#FEFDFD"/>
	<path d="M56.2982 80.145C56.6077 80.1442 56.6077 80.1442 56.9234 80.1434C57.1503 80.1437 57.3772 80.1441 57.6042 80.1445C57.8352 80.1443 58.0662 80.1442 58.2973 80.144C58.7821 80.1437 59.2668 80.1441 59.7516 80.1449C60.3743 80.1458 60.997 80.1453 61.6197 80.1443C62.097 80.1437 62.5742 80.1439 63.0514 80.1443C63.2811 80.1444 63.5108 80.1443 63.7404 80.1439C64.0609 80.1435 64.3814 80.1442 64.7018 80.145C64.9759 80.1452 64.9759 80.1452 65.2554 80.1454C65.6667 80.1666 65.6667 80.1666 65.8333 80.3333C65.8499 80.6596 65.8547 80.9866 65.8549 81.3134C65.8554 81.5231 65.8559 81.7327 65.8565 81.9488C65.8562 82.1794 65.8558 82.41 65.8555 82.6406C65.8556 82.8753 65.8557 83.1101 65.8559 83.3449C65.8562 83.8375 65.8558 84.3301 65.855 84.8228C65.8541 85.4556 65.8546 86.0883 65.8556 86.7211C65.8562 87.2061 65.8561 87.6911 65.8556 88.176C65.8555 88.4094 65.8556 88.6428 65.856 88.8762C65.8565 89.2018 65.8557 89.5275 65.8549 89.8531C65.8548 90.0388 65.8546 90.2244 65.8545 90.4157C65.8333 90.8333 65.8333 90.8333 65.6667 90.9999C65.3454 91.0165 65.0235 91.0213 64.7018 91.0215C64.4955 91.022 64.2891 91.0225 64.0766 91.0231C63.8496 91.0228 63.6227 91.0224 63.3958 91.0221C63.1648 91.0222 62.9337 91.0223 62.7027 91.0225C62.2179 91.0228 61.7331 91.0224 61.2484 91.0217C60.6257 91.0207 60.003 91.0213 59.3803 91.0223C58.903 91.0229 58.4258 91.0227 57.9485 91.0222C57.7189 91.0221 57.4892 91.0223 57.2595 91.0226C56.9391 91.0231 56.6186 91.0223 56.2982 91.0215C56.0241 91.0213 56.0241 91.0213 55.7445 91.0211C55.3333 90.9999 55.3333 90.9999 55.1667 90.8333C55.1501 90.5069 55.1453 90.1799 55.1451 89.8531C55.1446 89.6434 55.144 89.4338 55.1435 89.2178C55.1438 88.9872 55.1441 88.7566 55.1445 88.526C55.1444 88.2912 55.1442 88.0564 55.144 87.8216C55.1438 87.329 55.1441 86.8364 55.1449 86.3438C55.1459 85.711 55.1453 85.0782 55.1443 84.4454C55.1437 83.9604 55.1439 83.4755 55.1443 82.9905C55.1445 82.7571 55.1443 82.5237 55.1439 82.2903C55.1435 81.9647 55.1443 81.6391 55.1451 81.3134C55.1452 81.1277 55.1454 80.9421 55.1455 80.7508C55.1852 79.9673 55.6102 80.1455 56.2982 80.145Z" fill="#FEFDFC"/>
	<path d="M126.833 54.5C127.713 54.5 128.593 54.5 129.5 54.5C129.508 57.0223 129.514 59.5447 129.517 62.067C129.519 63.2382 129.521 64.4095 129.525 65.5807C129.529 66.711 129.531 67.8414 129.532 68.9718C129.532 69.403 129.533 69.8341 129.535 70.2653C129.538 70.8694 129.538 71.4734 129.538 72.0775C129.539 72.2557 129.54 72.4338 129.542 72.6173C129.536 74.6989 129.536 74.6989 128.889 75.5182C128.782 75.6085 128.674 75.6987 128.563 75.7917C128.457 75.8836 128.352 75.9756 128.244 76.0703C127.162 76.7639 126.124 76.926 124.854 76.9167C124.707 76.916 124.561 76.9152 124.41 76.9145C123.032 76.8784 122.059 76.5731 121.083 75.5729C120.671 74.9032 120.458 74.4648 120.46 73.6669C120.459 73.4152 120.459 73.4152 120.459 73.1584C120.46 72.9753 120.461 72.7923 120.462 72.6037C120.462 72.4101 120.462 72.2166 120.462 72.0172C120.462 71.3769 120.465 70.7366 120.467 70.0964C120.468 69.6526 120.469 69.2089 120.469 68.7652C120.47 67.7163 120.473 66.6674 120.476 65.6186C120.48 64.4243 120.482 63.23 120.483 62.0358C120.487 59.5794 120.493 57.123 120.5 54.6667C121.325 54.6667 122.15 54.6667 123 54.6667C123.001 54.9084 123.002 55.1501 123.003 55.3991C123.013 57.6773 123.025 59.9555 123.039 62.2337C123.047 63.4049 123.053 64.5761 123.058 65.7474C123.062 66.8777 123.069 68.0081 123.077 69.1384C123.08 69.5696 123.082 70.0008 123.083 70.432C123.085 71.0361 123.089 71.6401 123.095 72.2442C123.094 72.4223 123.094 72.6005 123.094 72.784C123.106 73.7611 123.193 74.4718 123.667 75.3333C124.157 75.7508 124.731 75.7168 125.35 75.6973C125.76 75.6576 126.01 75.5943 126.333 75.3333C126.613 74.7515 126.709 74.2829 126.713 73.6405C126.715 73.4711 126.717 73.3017 126.719 73.1271C126.719 72.9431 126.719 72.7591 126.72 72.5695C126.722 72.2767 126.722 72.2767 126.725 71.978C126.73 71.3332 126.733 70.6884 126.736 70.0436C126.739 69.5964 126.742 69.1492 126.745 68.702C126.753 67.6454 126.759 66.5889 126.765 65.5323C126.771 64.3292 126.78 63.126 126.788 61.9229C126.805 59.4486 126.82 56.9743 126.833 54.5Z" fill="#27405C"/>
	<path d="M78.3333 57.5C81.8533 57.5 85.3733 57.5 89 57.5C89.0034 59.2291 89.0069 60.9581 89.0104 62.7396C89.0119 63.2862 89.0134 63.8329 89.015 64.3961C89.0155 64.8264 89.0159 65.2566 89.0163 65.6868C89.0167 65.7993 89.0171 65.9118 89.0176 66.0278C89.0188 66.3576 89.0189 66.6874 89.0189 67.0172C89.0193 67.2034 89.0196 67.3895 89.02 67.5813C89 68 89 68 88.8333 68.1667C88.512 68.1832 88.1902 68.188 87.8685 68.1882C87.6621 68.1888 87.4558 68.1893 87.2432 68.1898C87.0163 68.1895 86.7894 68.1892 86.5625 68.1888C86.3314 68.1889 86.1004 68.1891 85.8694 68.1893C85.3846 68.1895 84.8998 68.1892 84.415 68.1884C83.7923 68.1874 83.1696 68.188 82.5469 68.189C82.0697 68.1896 81.5924 68.1894 81.1152 68.189C80.8855 68.1889 80.6559 68.189 80.4262 68.1894C80.1057 68.1898 79.7853 68.189 79.4648 68.1882C79.1908 68.188 79.1908 68.188 78.9112 68.1878C78.5 68.1667 78.5 68.1667 78.3333 68C78.3177 67.6727 78.3137 67.3449 78.3144 67.0172C78.3144 66.8041 78.3144 66.5909 78.3145 66.3713C78.3153 66.1431 78.3162 65.915 78.317 65.6868C78.3172 65.4806 78.3174 65.2744 78.3176 65.0619C78.3184 64.2878 78.3208 63.5137 78.3229 62.7396C78.3263 61.0105 78.3298 59.2815 78.3333 57.5Z" fill="#FEFEFE"/>
	<path d="M55.1667 57.6668C56.5328 57.6629 57.899 57.66 59.2651 57.6581C59.8994 57.6573 60.5337 57.6561 61.168 57.6542C61.7797 57.6524 62.3913 57.6514 63.003 57.651C63.2368 57.6506 63.4707 57.65 63.7045 57.6491C64.031 57.6479 64.3574 57.6479 64.6839 57.6479C64.8701 57.6475 65.0562 57.6471 65.248 57.6467C65.6667 57.6668 65.6667 57.6668 65.8334 57.8334C65.8499 58.1547 65.8547 58.4766 65.8549 58.7983C65.8555 59.0046 65.856 59.2109 65.8565 59.4235C65.8562 59.6504 65.8559 59.8774 65.8555 60.1043C65.8556 60.3353 65.8558 60.5663 65.856 60.7974C65.8562 61.2822 65.8559 61.7669 65.8551 62.2517C65.8541 62.8744 65.8547 63.4971 65.8557 64.1198C65.8563 64.5971 65.8561 65.0743 65.8557 65.5516C65.8556 65.7812 65.8557 66.0109 65.8561 66.2406C65.8565 66.561 65.8557 66.8815 65.8549 67.2019C65.8548 67.3846 65.8547 67.5673 65.8545 67.7556C65.8334 68.1668 65.8334 68.1668 65.6667 68.3334C65.3454 68.35 65.0235 68.3548 64.7019 68.355C64.4955 68.3555 64.2892 68.3561 64.0766 68.3566C63.8497 68.3563 63.6228 68.356 63.3959 68.3556C63.1648 68.3557 62.9338 68.3558 62.7027 68.3561C62.218 68.3563 61.7332 68.3559 61.2484 68.3552C60.6257 68.3542 60.003 68.3548 59.3803 68.3558C58.9031 68.3564 58.4258 68.3562 57.9486 68.3557C57.7189 68.3556 57.4892 68.3558 57.2596 68.3562C56.9391 68.3566 56.6187 68.3558 56.2982 68.355C56.0242 68.3548 56.0242 68.3548 55.7446 68.3546C55.3334 68.3334 55.3334 68.3334 55.1667 68.1668C55.151 67.8395 55.1471 67.5116 55.1478 67.184C55.1478 66.9738 55.1478 66.7636 55.1478 66.547C55.1487 66.3159 55.1495 66.0847 55.1504 65.8536C55.1507 65.6184 55.151 65.3833 55.1511 65.1481C55.1518 64.528 55.1534 63.908 55.1552 63.2879C55.157 62.6556 55.1577 62.0233 55.1586 61.3911C55.1603 60.1496 55.1632 58.9082 55.1667 57.6668Z" fill="#FEFEFE"/>
	<path d="M113.281 54.2916C113.476 54.2864 113.476 54.2864 113.674 54.2812C114.845 54.2734 115.863 54.5412 116.812 55.2499C116.951 55.3505 116.951 55.3505 117.092 55.453C117.662 55.9583 117.752 56.4411 117.833 57.1666C117.851 57.66 117.849 58.1522 117.844 58.6458C117.843 58.7764 117.842 58.907 117.841 59.0416C117.839 59.361 117.837 59.6805 117.833 59.9999C117.008 59.9999 116.183 59.9999 115.333 59.9999C115.324 59.6535 115.324 59.6535 115.314 59.3001C115.303 58.9951 115.292 58.6902 115.281 58.3853C115.276 58.1573 115.276 58.1573 115.27 57.9247C115.229 56.7937 115.229 56.7937 114.667 55.8333C114 55.3832 113.278 55.3835 112.5 55.4999C112.022 55.7989 111.751 55.997 111.5 56.4999C111.484 56.7317 111.478 56.9642 111.478 57.1965C111.477 57.3425 111.476 57.4886 111.476 57.639C111.476 57.7996 111.476 57.9602 111.476 58.1257C111.475 58.2946 111.475 58.4634 111.474 58.6374C111.472 59.1981 111.472 59.7589 111.472 60.3196C111.471 60.7087 111.471 61.0977 111.47 61.4868C111.469 62.3038 111.469 63.1208 111.469 63.9378C111.469 64.9839 111.467 66.0301 111.464 67.0762C111.462 67.8805 111.462 68.6848 111.462 69.489C111.462 69.8746 111.461 70.2602 111.46 70.6458C111.458 71.186 111.458 71.7261 111.459 72.2663C111.458 72.5047 111.458 72.5047 111.457 72.7479C111.45 74.2263 111.45 74.2263 112.13 75.4849C112.831 75.8293 113.574 75.7728 114.333 75.6666C114.861 75.3022 114.965 75.1051 115.167 74.4999C115.186 74.2009 115.196 73.9013 115.201 73.6017C115.204 73.4182 115.208 73.2347 115.211 73.0457C115.214 72.8477 115.217 72.6498 115.219 72.4459C115.223 72.2431 115.226 72.0404 115.23 71.8315C115.241 71.1828 115.251 70.5341 115.26 69.8853C115.268 69.446 115.275 69.0066 115.282 68.5673C115.3 67.4893 115.317 66.4113 115.333 65.3333C114.508 65.3333 113.683 65.3333 112.833 65.3333C112.833 64.9483 112.833 64.5633 112.833 64.1666C114.483 64.1666 116.133 64.1666 117.833 64.1666C117.851 65.5115 117.868 66.856 117.876 68.2009C117.881 68.8273 117.887 69.4536 117.896 70.0799C117.905 70.684 117.91 71.288 117.912 71.8922C117.914 72.1218 117.917 72.3515 117.921 72.5811C117.947 73.9093 117.946 74.9888 117 75.9999C116.608 76.2701 116.608 76.2701 116.229 76.4062C116.103 76.4541 115.977 76.502 115.848 76.5514C115.733 76.5894 115.618 76.6274 115.5 76.6666C115.335 76.7216 115.17 76.7766 115 76.8333C114.379 76.8805 113.758 76.8795 113.135 76.8853C112.966 76.8902 112.797 76.895 112.622 76.9C111.545 76.909 110.701 76.8406 109.833 76.1666C108.926 75.1435 108.687 74.2684 108.709 72.9263C108.708 72.7592 108.707 72.592 108.706 72.4198C108.703 71.8715 108.707 71.3236 108.712 70.7753C108.712 70.392 108.712 70.0088 108.712 69.6255C108.712 68.824 108.715 68.0226 108.721 67.2211C108.729 66.1957 108.729 65.1704 108.727 64.145C108.726 63.3542 108.728 62.5633 108.731 61.7725C108.732 61.3945 108.733 61.0165 108.732 60.6384C108.732 60.1095 108.736 59.5808 108.742 59.052C108.741 58.897 108.74 58.7421 108.739 58.5825C108.759 57.3438 109.085 56.4803 109.896 55.5416C111.019 54.5789 111.823 54.301 113.281 54.2916Z" fill="#253F5A"/>
	<path d="M162.5 54.5C162.995 54.5 163.49 54.5 164 54.5C164.052 54.6409 164.105 54.7819 164.159 54.9271C164.514 55.8681 164.874 56.7848 165.34 57.6764C165.589 58.1791 165.787 58.7 165.992 59.222C166.417 60.3023 166.875 61.3699 167.326 62.4395C167.443 62.7166 167.56 62.9937 167.677 63.2708C167.735 63.4081 167.793 63.5455 167.853 63.6869C168.201 64.514 168.539 65.3444 168.867 66.1797C168.985 66.4627 169.121 66.7375 169.26 67.0104C169.526 67.5533 169.71 68.0991 169.892 68.6745C169.994 69.0078 169.994 69.0078 170.167 69.3333C170.222 64.4383 170.277 59.5433 170.333 54.5C170.773 54.5 171.213 54.5 171.667 54.5C171.667 61.76 171.667 69.02 171.667 76.5C171.227 76.5 170.787 76.5 170.333 76.5C170.292 76.3994 170.251 76.2988 170.209 76.1951C168.95 73.1012 168.95 73.1012 167.652 70.0234C167.521 69.7205 167.391 69.4175 167.26 69.1146C167.195 68.963 167.13 68.8115 167.063 68.6553C166.682 67.7679 166.312 66.8775 165.958 65.9792C165.621 65.1242 165.26 64.288 164.863 63.4596C164.591 62.822 164.386 62.1576 164.167 61.5C164.112 66.505 164.057 71.51 164 76.6667C163.505 76.6667 163.01 76.6667 162.5 76.6667C162.5 69.3517 162.5 62.0367 162.5 54.5Z" fill="#2B435E"/>
	<path d="M179.833 34.1667C184.794 34.1667 184.794 34.1667 185.827 35.1243C186.222 35.7557 186.272 36.1052 186.274 36.8454C186.276 36.9588 186.277 37.0722 186.279 37.1891C186.283 37.5615 186.28 37.9336 186.277 38.3061C186.278 38.5668 186.279 38.8274 186.28 39.0881C186.281 39.6337 186.279 40.1791 186.275 40.7247C186.271 41.4211 186.273 42.1173 186.278 42.8138C186.281 43.352 186.28 43.8901 186.278 44.4284C186.278 44.685 186.278 44.9416 186.28 45.1982C186.294 47.5892 186.294 47.5892 185.626 48.5873C183.987 49.9672 181.852 49.3334 179.833 49.3334C179.833 44.3284 179.833 39.3234 179.833 34.1667Z" fill="#29425D"/>
	<path d="M184.667 3.83325C187.252 3.83325 189.837 3.83325 192.5 3.83325C192.5 4.27325 192.5 4.71325 192.5 5.16659C190.905 5.16659 189.31 5.16659 187.667 5.16659C187.667 8.30158 187.667 11.4366 187.667 14.6666C189.152 14.6666 190.637 14.6666 192.167 14.6666C192.167 15.1066 192.167 15.5466 192.167 15.9999C190.682 15.9999 189.197 15.9999 187.667 15.9999C187.667 19.6849 187.667 23.3699 187.667 27.1666C189.262 27.1666 190.857 27.1666 192.5 27.1666C192.5 27.6066 192.5 28.0466 192.5 28.4999C189.915 28.4999 187.33 28.4999 184.667 28.4999C184.667 20.3599 184.667 12.2199 184.667 3.83325Z" fill="#27415C"/>
	<path d="M144.333 34.6666C145.09 35.4615 145.188 35.928 145.191 37.0107C145.191 37.1318 145.192 37.253 145.193 37.3778C145.194 37.7794 145.194 38.181 145.195 38.5826C145.195 38.8612 145.196 39.1398 145.196 39.4184C145.197 40.0028 145.198 40.5872 145.198 41.1716C145.198 41.9211 145.2 42.6706 145.203 43.4201C145.205 43.9956 145.205 44.5711 145.205 45.1466C145.205 45.4229 145.206 45.6993 145.207 45.9757C145.209 46.3619 145.208 46.7481 145.207 47.1344C145.207 47.3543 145.208 47.5743 145.208 47.8009C145.167 48.3333 145.167 48.3333 144.833 48.8333C145.328 48.8333 145.823 48.8333 146.333 48.8333C146.333 49.1083 146.333 49.3833 146.333 49.6666C145.649 49.6791 144.964 49.6881 144.279 49.6941C144.047 49.6966 143.815 49.7 143.583 49.7044C140.881 49.7538 140.881 49.7538 139.833 49.1666C138.986 48.3407 138.908 47.6395 138.893 46.4737C138.893 46.1074 138.897 45.7413 138.901 45.375C138.901 45.1179 138.901 44.8608 138.901 44.6036C138.901 44.0662 138.904 43.5289 138.91 42.9915C138.916 42.305 138.917 41.6186 138.916 40.9321C138.915 40.4016 138.917 39.8712 138.92 39.3407C138.921 39.0877 138.922 38.8346 138.922 38.5816C138.922 38.2271 138.926 37.8727 138.93 37.5182C138.931 37.317 138.933 37.1159 138.934 36.9087C139.039 35.9918 139.335 35.1989 140.073 34.6041C140.217 34.4836 140.217 34.4836 140.364 34.3606C141.583 33.5793 143.182 33.9492 144.333 34.6666Z" fill="#29425D"/>
	<path d="M175.333 3.83325C176.323 3.83325 177.313 3.83325 178.333 3.83325C178.333 11.5333 178.333 19.2333 178.333 27.1666C179.928 27.1666 181.523 27.1666 183.167 27.1666C183.167 27.6066 183.167 28.0466 183.167 28.4999C180.582 28.4999 177.997 28.4999 175.333 28.4999C175.333 20.3599 175.333 12.2199 175.333 3.83325Z" fill="#263F5B"/>
	<path d="M108.833 3.83325C109.823 3.83325 110.813 3.83325 111.833 3.83325C111.833 11.5333 111.833 19.2333 111.833 27.1666C113.373 27.1666 114.913 27.1666 116.5 27.1666C116.5 27.6066 116.5 28.0466 116.5 28.4999C113.97 28.4999 111.44 28.4999 108.833 28.4999C108.833 20.3599 108.833 12.2199 108.833 3.83325Z" fill="#253F5A"/>
	<path d="M176.833 55.6667C177.823 55.6667 178.813 55.6667 179.833 55.6667C180.771 56.6043 180.771 56.6043 180.771 57.2643C180.773 57.4126 180.776 57.561 180.778 57.7138C180.776 57.8744 180.774 58.0351 180.772 58.2006C180.773 58.3714 180.774 58.5422 180.775 58.7182C180.778 59.2825 180.775 59.8466 180.771 60.4109C180.772 60.8034 180.772 61.1959 180.773 61.5884C180.773 62.411 180.771 63.2335 180.766 64.056C180.76 65.1099 180.761 66.1636 180.765 67.2175C180.766 68.028 180.765 68.8385 180.762 69.6491C180.761 70.0376 180.762 70.4262 180.763 70.8147C180.764 71.3581 180.76 71.9013 180.756 72.4447C180.757 72.605 180.758 72.7653 180.759 72.9304C180.745 73.8681 180.64 74.4307 180 75.1667C179.5 75.5001 179.5 75.5001 176.833 75.5001C176.833 68.9551 176.833 62.4101 176.833 55.6667Z" fill="#FDFDFD"/>
	<path d="M117 34.1667C121.805 34.1667 121.805 34.1667 122.911 35.2273C123.393 36.0561 123.269 36.9713 123.26 37.9063C123.266 38.2101 123.266 38.2101 123.272 38.5199C123.27 40.1756 123.27 40.1756 122.794 40.7833C122.374 41.1329 122.038 41.3659 121.531 41.5626C121.4 41.6154 121.268 41.6683 121.132 41.7227C120.984 41.7775 120.984 41.7775 120.833 41.8334C121.067 42.6658 121.315 43.4818 121.646 44.2813C122.022 45.1931 122.323 46.1263 122.626 47.0645C122.773 47.4905 122.926 47.8859 123.109 48.295C123.333 48.8334 123.333 48.8334 123.333 49.3334C122.728 49.3334 122.123 49.3334 121.5 49.3334C120.667 46.8334 119.833 44.3334 119 41.8334C118.945 44.3084 118.89 46.7834 118.833 49.3334C118.228 49.3334 117.623 49.3334 117 49.3334C117 44.3284 117 39.3234 117 34.1667Z" fill="#2E4661"/>
	<path d="M185.5 54.6667C187.755 54.6667 190.01 54.6667 192.333 54.6667C192.333 54.9967 192.333 55.3267 192.333 55.6667C190.958 55.6667 189.583 55.6667 188.167 55.6667C188.167 58.5267 188.167 61.3867 188.167 64.3334C189.487 64.3334 190.807 64.3334 192.167 64.3334C192.167 64.6634 192.167 64.9934 192.167 65.3334C190.847 65.3334 189.527 65.3334 188.167 65.3334C188.167 68.6884 188.167 72.0434 188.167 75.5001C189.542 75.5001 190.917 75.5001 192.333 75.5001C192.333 75.8301 192.333 76.1601 192.333 76.5001C190.078 76.5001 187.823 76.5001 185.5 76.5001C185.5 69.2951 185.5 62.0901 185.5 54.6667Z" fill="#253E5A"/>
	<path d="M131.667 54.6667C133.922 54.6667 136.177 54.6667 138.5 54.6667C138.5 54.9967 138.5 55.3267 138.5 55.6667C137.125 55.6667 135.75 55.6667 134.333 55.6667C134.333 58.5267 134.333 61.3867 134.333 64.3334C135.653 64.3334 136.973 64.3334 138.333 64.3334C138.333 64.6634 138.333 64.9934 138.333 65.3334C137.013 65.3334 135.693 65.3334 134.333 65.3334C134.333 68.6884 134.333 72.0434 134.333 75.5001C135.708 75.5001 137.083 75.5001 138.5 75.5001C138.5 75.8301 138.5 76.1601 138.5 76.5001C136.245 76.5001 133.99 76.5001 131.667 76.5001C131.667 69.2951 131.667 62.0901 131.667 54.6667Z" fill="#243E5A"/>
	<path d="M108.667 34.1667C109.417 34.1472 110.167 34.1355 110.917 34.1251C111.234 34.1167 111.234 34.1167 111.557 34.1081C112.785 34.0953 113.637 34.1384 114.667 34.8334C115.206 35.6422 115.062 36.5862 115.062 37.5328C115.063 37.8935 115.069 38.254 115.075 38.6146C115.076 38.8451 115.077 39.0756 115.077 39.3061C115.078 39.515 115.08 39.7239 115.081 39.9391C114.984 40.6119 114.829 40.8731 114.333 41.3334C113.333 41.6667 113.333 41.6667 110.667 41.6667C110.667 44.2517 110.667 46.8367 110.667 49.5001C110.062 49.5001 109.457 49.5001 108.833 49.5001C108.526 49.1926 108.647 48.7592 108.646 48.3502C108.647 48.2089 108.647 48.0677 108.648 47.9222C108.648 47.7743 108.648 47.6263 108.648 47.4739C108.648 46.9824 108.649 46.4909 108.65 45.9994C108.651 45.6596 108.651 45.3198 108.651 44.98C108.652 44.0838 108.653 43.1875 108.655 42.2913C108.657 41.3775 108.658 40.4637 108.659 39.5499C108.66 37.7555 108.663 35.9611 108.667 34.1667Z" fill="#334B65"/>
	<path d="M147.5 34.1667C148.105 34.1667 148.71 34.1667 149.333 34.1667C149.334 34.3386 149.335 34.5104 149.336 34.6874C149.346 36.306 149.358 37.9246 149.373 39.5431C149.38 40.3753 149.387 41.2074 149.391 42.0396C149.395 42.8425 149.402 43.6454 149.411 44.4483C149.413 44.7548 149.415 45.0612 149.416 45.3677C149.418 45.7967 149.423 46.2256 149.428 46.6545C149.428 46.7815 149.427 46.9085 149.427 47.0393C149.437 47.573 149.468 47.9435 149.734 48.412C150.061 48.7256 150.218 48.7569 150.667 48.7501C150.78 48.7518 150.894 48.7535 151.01 48.7553C151.352 48.6891 151.352 48.6891 151.599 48.412C151.926 47.837 151.907 47.2987 151.905 46.6545C151.907 46.5195 151.909 46.3845 151.911 46.2454C151.916 45.7999 151.917 45.3545 151.919 44.9089C151.921 44.5997 151.924 44.2905 151.928 43.9814C151.936 43.1681 151.941 42.3549 151.945 41.5417C151.95 40.7116 151.958 39.8816 151.965 39.0515C151.98 37.4233 151.991 35.795 152 34.1667C152.605 34.1667 153.21 34.1667 153.833 34.1667C153.853 35.9777 153.867 37.7886 153.877 39.5997C153.881 40.4406 153.887 41.2815 153.896 42.1224C153.905 42.934 153.91 43.7455 153.912 44.5571C153.914 44.8667 153.917 45.1763 153.921 45.4859C153.928 45.9197 153.928 46.3532 153.928 46.787C153.931 46.9149 153.934 47.0428 153.937 47.1746C153.931 47.8442 153.863 48.1309 153.432 48.6554C152.347 49.5209 151.34 49.7728 149.956 49.7201C148.93 49.5999 148.332 49.0936 147.667 48.3334C147.463 47.7214 147.478 47.1591 147.481 46.5221C147.481 46.3887 147.481 46.2554 147.481 46.1179C147.481 45.677 147.482 45.236 147.484 44.795C147.484 44.4893 147.484 44.1836 147.484 43.8779C147.485 43.0732 147.487 42.2685 147.489 41.4637C147.49 40.6426 147.491 39.8215 147.492 39.0004C147.494 37.3892 147.497 35.778 147.5 34.1667Z" fill="#2B445F"/>
	<path d="M133.333 87.3334C134.261 87.7931 134.939 88.4889 135.36 89.435C135.737 90.9587 135.824 93.0614 135.146 94.5001C134.683 95.2364 134.116 95.7755 133.333 96.1668C132.259 96.2504 131.236 96.3271 130.333 95.6668C129.286 94.644 128.986 93.5647 128.941 92.1258C128.928 90.7247 129.038 89.5762 129.792 88.3647C130.85 87.3359 131.875 87.0743 133.333 87.3334Z" fill="#2D4660"/>
	<path d="M141 15.8333C144.077 15.8333 144.077 15.8333 145.057 16.6647C145.481 17.4348 145.425 18.1648 145.416 19.0299C145.416 19.2109 145.417 19.3919 145.417 19.5784C145.416 19.9609 145.415 20.3433 145.411 20.7257C145.406 21.3092 145.408 21.8924 145.41 22.4758C145.409 22.848 145.407 23.2202 145.406 23.5924C145.406 23.766 145.407 23.9397 145.407 24.1186C145.395 25.091 145.345 25.8269 144.833 26.6666C143.833 27.3333 143.833 27.3333 141 27.3333C141 23.5383 141 19.7433 141 15.8333Z" fill="#FAFAFB"/>
	<path d="M136.5 34.6667C137.014 35.1629 137.157 35.409 137.232 36.1283C137.227 36.353 137.219 36.5777 137.208 36.8021C137.205 36.9176 137.202 37.0331 137.199 37.1521C137.191 37.4348 137.179 37.7175 137.167 38.0001C136.507 38.0001 135.847 38.0001 135.167 38.0001C135.167 37.0651 135.167 36.1301 135.167 35.1667C134.7 35.0111 134.391 34.9728 133.906 34.9688C133.775 34.9664 133.645 34.9641 133.51 34.9617C133.129 34.9681 133.129 34.9681 132.833 35.3334C132.544 36.6884 132.4 38.5143 133.061 39.7643C133.621 40.5124 134.292 41.1239 135.005 41.7228C137.029 43.4335 137.029 43.4335 137.228 44.7344C137.256 45.1863 137.258 45.6308 137.25 46.0834C137.253 46.2353 137.255 46.3872 137.258 46.5437C137.252 47.5548 137.136 48.1993 136.5 49.0001C135.638 49.514 134.871 49.5781 133.896 49.5626C133.773 49.5645 133.65 49.5664 133.523 49.5684C132.762 49.5643 132.272 49.4678 131.667 49.0001C131.112 48.3684 130.811 47.9837 130.817 47.1446C130.818 47.0103 130.818 46.876 130.819 46.7377C130.82 46.5974 130.821 46.4571 130.823 46.3126C130.824 46.171 130.824 46.0294 130.825 45.8835C130.827 45.5335 130.83 45.1834 130.833 44.8334C131.438 44.8334 132.043 44.8334 132.667 44.8334C132.673 45.0682 132.679 45.303 132.686 45.545C132.696 45.8529 132.708 46.1609 132.719 46.4688C132.723 46.6236 132.726 46.7784 132.73 46.9379C132.736 47.0867 132.742 47.2354 132.748 47.3887C132.755 47.5943 132.755 47.5943 132.761 47.804C132.849 48.2432 132.984 48.3946 133.333 48.6667C133.657 48.7575 133.657 48.7575 134 48.7501C134.113 48.7552 134.227 48.7604 134.344 48.7657C134.698 48.6881 134.698 48.6881 134.949 48.3438C135.447 47.1749 135.425 45.7327 135.167 44.5001C134.823 43.7242 134.231 43.1591 133.614 42.592C133.212 42.2222 132.83 41.8337 132.446 41.446C132.257 41.2571 132.066 41.0701 131.874 40.8852C131.101 40.1397 130.796 39.6706 130.771 38.5951C130.766 38.2371 130.762 37.879 130.76 37.5209C130.755 37.3415 130.749 37.1621 130.744 36.9773C130.734 35.4996 130.734 35.4996 131.223 34.8946C132.627 33.6456 134.945 33.5728 136.5 34.6667Z" fill="#2B445F"/>
	<path d="M142.073 34.7605C142.2 34.7573 142.327 34.7541 142.458 34.7507C142.989 34.8677 143.166 35.0732 143.5 35.5001C143.582 36.0365 143.582 36.0365 143.581 36.6794C143.582 36.7968 143.582 36.9143 143.583 37.0352C143.584 37.4227 143.581 37.8099 143.577 38.1973C143.576 38.4672 143.576 38.737 143.576 39.0068C143.576 39.5722 143.573 40.1374 143.569 40.7028C143.563 41.4265 143.562 42.1501 143.562 42.8738C143.562 43.431 143.56 43.9882 143.558 44.5454C143.557 44.8122 143.556 45.079 143.556 45.3458C143.555 45.7192 143.552 46.0925 143.548 46.4659C143.547 46.6781 143.546 46.8904 143.545 47.1091C143.486 47.8402 143.355 48.3122 142.833 48.8334C141.653 48.9476 141.653 48.9476 141.15 48.5731C140.729 48.0326 140.741 47.5786 140.75 46.9209C140.749 46.7965 140.748 46.672 140.747 46.5438C140.745 46.1331 140.748 45.7226 140.751 45.3119C140.751 45.0264 140.75 44.7408 140.75 44.4552C140.75 43.8571 140.752 43.259 140.756 42.6609C140.76 41.8938 140.76 41.1268 140.758 40.3597C140.757 39.7702 140.758 39.1807 140.76 38.5912C140.761 38.3083 140.761 38.0255 140.76 37.7426C140.76 37.3476 140.762 36.9527 140.766 36.5577C140.765 36.4405 140.765 36.3233 140.764 36.2026C140.771 35.7223 140.78 35.4076 141.065 35.0114C141.416 34.7782 141.653 34.7612 142.073 34.7605Z" fill="#F8F8F9"/>
	<path d="M181.667 35C182.382 35 183.097 35 183.833 35C184.454 35.6208 184.396 35.805 184.398 36.6604C184.399 36.7778 184.4 36.8952 184.401 37.0162C184.403 37.4045 184.401 37.7927 184.4 38.181C184.4 38.4511 184.401 38.7211 184.401 38.9912C184.402 39.5575 184.401 40.1238 184.399 40.6901C184.396 41.4151 184.397 42.1401 184.4 42.8651C184.402 43.423 184.402 43.9809 184.4 44.5389C184.4 44.8061 184.4 45.0734 184.402 45.3406C184.403 45.7148 184.401 46.0889 184.398 46.4631C184.398 46.6759 184.397 46.8887 184.397 47.1079C184.328 47.7099 184.206 48.0264 183.833 48.5C183.333 48.6667 183.333 48.6667 181.667 48.6667C181.667 44.1567 181.667 39.6467 181.667 35Z" fill="#FAFBFB"/>
	<path d="M170 34.1667C171.595 34.1667 173.19 34.1667 174.833 34.1667C174.833 34.4417 174.833 34.7167 174.833 35.0001C173.843 35.0001 172.853 35.0001 171.833 35.0001C171.833 36.9251 171.833 38.8501 171.833 40.8334C172.768 40.8334 173.703 40.8334 174.667 40.8334C174.667 41.1084 174.667 41.3834 174.667 41.6667C173.732 41.6667 172.797 41.6667 171.833 41.6667C171.833 43.9767 171.833 46.2867 171.833 48.6667C172.823 48.6667 173.813 48.6667 174.833 48.6667C174.833 48.9417 174.833 49.2167 174.833 49.5001C173.238 49.5001 171.643 49.5001 170 49.5001C170 44.4401 170 39.3801 170 34.1667Z" fill="#2C455F"/>
	<path d="M124.667 34.1667C126.262 34.1667 127.857 34.1667 129.5 34.1667C129.5 34.4417 129.5 34.7167 129.5 35.0001C128.51 35.0001 127.52 35.0001 126.5 35.0001C126.5 36.9251 126.5 38.8501 126.5 40.8334C127.435 40.8334 128.37 40.8334 129.333 40.8334C129.333 41.1084 129.333 41.3834 129.333 41.6667C128.398 41.6667 127.463 41.6667 126.5 41.6667C126.5 43.9767 126.5 46.2867 126.5 48.6667C127.49 48.6667 128.48 48.6667 129.5 48.6667C129.5 48.9417 129.5 49.2167 129.5 49.5001C127.905 49.5001 126.31 49.5001 124.667 49.5001C124.667 44.4401 124.667 39.3801 124.667 34.1667Z" fill="#2D4660"/>
	<path d="M124 7.5C124.11 7.555 124.22 7.61 124.333 7.66667C124.427 8.08188 124.427 8.08188 124.501 8.64246C124.544 8.95664 124.544 8.95664 124.587 9.27717C124.617 9.50878 124.647 9.74039 124.676 9.97201C124.708 10.2104 124.74 10.4488 124.772 10.6872C124.857 11.319 124.94 11.9509 125.022 12.583C125.153 13.5812 125.287 14.579 125.42 15.577C125.468 15.9392 125.516 16.3014 125.564 16.6637C125.758 18.1271 125.962 19.5884 126.194 21.0463C126.281 21.5977 126.333 22.1064 126.333 22.6667C124.958 22.6667 123.583 22.6667 122.167 22.6667C122.167 20.4167 122.167 20.4167 122.266 19.659C122.288 19.488 122.309 19.317 122.332 19.1408C122.356 18.9626 122.38 18.7845 122.404 18.6009C122.429 18.4094 122.454 18.2178 122.479 18.0205C122.558 17.4128 122.638 16.8054 122.719 16.1979C122.771 15.7979 122.823 15.3978 122.875 14.9977C122.977 14.2126 123.08 13.4277 123.183 12.6428C123.284 11.8815 123.382 11.1198 123.477 10.3578C123.5 10.1792 123.523 10.0006 123.546 9.81658C123.589 9.47953 123.631 9.14242 123.672 8.80522C123.691 8.65709 123.71 8.50895 123.729 8.35632C123.745 8.2265 123.762 8.09668 123.778 7.96292C123.833 7.66667 123.833 7.66667 124 7.5Z" fill="#F5F6F7"/>
	<path d="M141.167 5C143.667 5 143.667 5 144.667 5.66667C145.077 6.34705 145.051 7.06671 145.05 7.84115C145.051 7.96959 145.052 8.09803 145.052 8.23036C145.053 8.50155 145.053 8.77275 145.053 9.04395C145.052 9.45472 145.056 9.86529 145.06 10.276C145.072 12.8694 145.072 12.8694 144.5 14C143.667 14.5 143.667 14.5 141.167 14.5C141.167 11.365 141.167 8.23 141.167 5Z" fill="#FCFCFD"/>
	<path d="M154.667 7.5C154.777 7.5 154.887 7.5 155 7.5C155.03 7.71205 155.061 7.9241 155.092 8.14258C155.112 8.28256 155.132 8.42255 155.152 8.56677C155.197 8.87999 155.242 9.19323 155.286 9.50647C155.402 10.3184 155.519 11.1301 155.639 11.9414C156.01 14.4712 156.01 14.4712 156.073 15.5104C156.132 16.399 156.314 17.2459 156.5 18.1146C156.826 19.643 156.946 21.1046 157 22.6667C155.625 22.6667 154.25 22.6667 152.833 22.6667C152.926 20.699 153.149 18.7764 153.43 16.8274C153.571 15.8303 153.702 14.8317 153.833 13.8333C153.85 13.7053 153.867 13.5772 153.885 13.4453C154.014 12.4671 154.142 11.4887 154.271 10.5104C154.309 10.2167 154.348 9.92296 154.387 9.62923C154.48 8.91949 154.573 8.20975 154.667 7.5Z" fill="#F5F6F8"/>
	<path d="M187.667 34.3333C189.207 34.3333 190.747 34.3333 192.333 34.3333C192.333 34.5533 192.333 34.7733 192.333 34.9999C191.398 34.9999 190.463 34.9999 189.5 34.9999C189.5 36.9249 189.5 38.8499 189.5 40.8333C190.435 40.8333 191.37 40.8333 192.333 40.8333C192.333 41.1083 192.333 41.3833 192.333 41.6666C191.398 41.6666 190.463 41.6666 189.5 41.6666C189.5 43.9766 189.5 46.2866 189.5 48.6666C190.435 48.6666 191.37 48.6666 192.333 48.6666C192.333 48.8866 192.333 49.1066 192.333 49.3333C190.793 49.3333 189.253 49.3333 187.667 49.3333C187.667 44.3833 187.667 39.4333 187.667 34.3333Z" fill="#233D59"/>
	<path d="M145.833 87.5C149 87.5 149 87.5 150.333 88.3333C150.868 88.9353 150.92 89.506 150.893 90.2858C150.793 90.9281 150.552 91.309 150.167 91.8333C149.792 92.0729 149.792 92.0729 149.5 92.1667C149.745 92.9964 150.103 93.7071 150.521 94.4583C151.167 95.6226 151.167 95.6226 151.167 96C150.727 96 150.287 96 149.833 96C149.789 95.8999 149.745 95.7998 149.699 95.6967C149.495 95.2435 149.284 94.7937 149.073 94.3438C149.003 94.1862 148.933 94.0286 148.862 93.8662C148.79 93.7164 148.719 93.5665 148.645 93.4121C148.581 93.2733 148.518 93.1346 148.452 92.9916C148.108 92.5293 148.108 92.5293 147 92.5C147 93.71 147 94.92 147 96.1667C146.615 96.1667 146.23 96.1667 145.833 96.1667C145.833 93.3067 145.833 90.4467 145.833 87.5Z" fill="#2E4761"/>
	<path d="M165.5 87.5C166.05 87.5 166.6 87.5 167.167 87.5C167.441 88.477 167.699 89.4521 167.91 90.4447C168.051 91.0539 168.227 91.653 168.402 92.2533C168.5 92.6667 168.5 92.6667 168.5 93.3333C168.61 93.3333 168.72 93.3333 168.833 93.3333C168.851 93.1576 168.868 92.9818 168.885 92.8008C169.011 91.8013 169.261 90.8313 169.5 89.8542C169.546 89.6642 169.591 89.4743 169.638 89.2786C169.977 87.8792 169.977 87.8792 170.167 87.5C170.717 87.5 171.267 87.5 171.833 87.5C171.905 88.523 171.976 89.546 172.047 90.5691C172.071 90.9168 172.095 91.2645 172.12 91.6122C172.155 92.1132 172.189 92.6142 172.224 93.1152C172.235 93.2696 172.246 93.424 172.257 93.5831C172.312 94.3911 172.345 95.1901 172.333 96C171.948 96 171.563 96 171.167 96C171.157 95.8496 171.148 95.6992 171.139 95.5442C171.104 94.9817 171.069 94.4192 171.033 93.8566C171.018 93.614 171.003 93.3714 170.988 93.1288C170.967 92.7783 170.945 92.4279 170.923 92.0775C170.909 91.8671 170.896 91.6568 170.883 91.4401C170.834 90.8422 170.758 90.2592 170.667 89.6667C170 91.9487 170 91.9487 169.576 94.2858C169.5 94.6667 169.5 94.6667 169.167 95.1667C168.563 95.1979 168.563 95.1979 168 95.1667C167.972 95.0373 167.943 94.908 167.914 94.7747C167.646 93.5806 167.34 92.405 166.994 91.2311C166.815 90.6015 166.656 89.9692 166.5 89.3333C166.491 89.4938 166.482 89.6543 166.472 89.8197C166.437 90.4195 166.402 91.0193 166.367 91.6191C166.352 91.8779 166.337 92.1367 166.322 92.3955C166.3 92.7691 166.278 93.1427 166.256 93.5163C166.249 93.6306 166.243 93.7448 166.236 93.8626C166.193 94.5836 166.111 95.287 166 96C165.67 96 165.34 96 165 96C164.966 94.0353 165.061 92.1113 165.25 90.1562C165.274 89.8962 165.298 89.6361 165.322 89.376C165.38 88.7505 165.44 88.1252 165.5 87.5Z" fill="#2D4660"/>
	<path d="M159.5 34.1667C160.16 34.1667 160.82 34.1667 161.5 34.1667C161.5 39.2267 161.5 44.2867 161.5 49.5001C160.84 49.5001 160.18 49.5001 159.5 49.5001C159.5 44.4401 159.5 39.3801 159.5 34.1667Z" fill="#354D66"/>
	<path d="M164.333 34.3333C164.938 34.3333 165.543 34.3333 166.167 34.3333C166.167 39.0083 166.167 43.6833 166.167 48.4999C167.157 48.4999 168.147 48.4999 169.167 48.4999C169.167 48.7749 169.167 49.0499 169.167 49.3333C167.572 49.3333 165.977 49.3333 164.333 49.3333C164.333 44.3833 164.333 39.4333 164.333 34.3333Z" fill="#253F5A"/>
	<path d="M143.333 55.6667C146 55.6667 146 55.6667 146.667 56.1667C146.878 56.8017 146.867 57.4038 146.873 58.0658C146.874 58.2033 146.876 58.3408 146.877 58.4825C146.879 58.7735 146.881 59.0644 146.883 59.3554C146.885 59.7988 146.893 60.242 146.9 60.6853C146.902 60.9684 146.903 61.2515 146.904 61.5346C146.907 61.6664 146.91 61.7982 146.913 61.934C146.91 62.8092 146.747 63.3055 146.167 64.0001C145.32 64.4232 144.279 64.1667 143.333 64.1667C143.333 61.3617 143.333 58.5567 143.333 55.6667Z" fill="#FAFBFB"/>
	<path d="M155.333 57.8333C155.443 57.8333 155.553 57.8333 155.667 57.8333C155.906 58.9588 156.091 60.081 156.234 61.2226C156.254 61.3825 156.275 61.5424 156.296 61.7071C156.361 62.2144 156.425 62.7217 156.49 63.2291C156.574 63.8936 156.659 64.5581 156.744 65.2226C156.765 65.3849 156.786 65.5473 156.807 65.7145C156.968 66.96 157.15 68.2017 157.348 69.4418C157.368 69.5692 157.388 69.6966 157.409 69.8278C157.426 69.938 157.444 70.0482 157.462 70.1618C157.506 70.5501 157.5 70.9426 157.5 71.3333C156.29 71.3333 155.08 71.3333 153.833 71.3333C153.833 69.4581 153.833 69.4581 153.917 68.7679C153.936 68.6125 153.954 68.4571 153.973 68.297C153.993 68.1343 154.014 67.9716 154.035 67.804C154.056 67.6296 154.077 67.4553 154.098 67.2757C154.143 66.908 154.188 66.5403 154.233 66.1727C154.301 65.6225 154.368 65.0721 154.434 64.5217C154.705 62.2878 155.005 60.0594 155.333 57.8333Z" fill="#F6F7F8"/>
	<path d="M117.167 34.3333C118.377 34.3333 119.587 34.3333 120.833 34.3333C120.778 34.4983 120.723 34.6633 120.667 34.8333C120.062 34.8333 119.457 34.8333 118.833 34.8333C118.833 36.8683 118.833 38.9033 118.833 40.9999C118.943 41.0549 119.053 41.1099 119.167 41.1666C119.112 41.2766 119.057 41.3866 119 41.4999C118.98 41.7517 118.97 42.0043 118.966 42.2568C118.962 42.4136 118.959 42.5704 118.956 42.732C118.951 42.9864 118.951 42.9864 118.947 43.246C118.944 43.4194 118.94 43.5928 118.937 43.7715C118.926 44.3268 118.916 44.8821 118.906 45.4374C118.899 45.8133 118.892 46.1892 118.884 46.565C118.867 47.4878 118.85 48.4105 118.833 49.3333C118.283 49.3333 117.733 49.3333 117.167 49.3333C117.167 44.3833 117.167 39.4333 117.167 34.3333Z" fill="#233D59"/>
	<path d="M132.642 88.265C133.209 88.3733 133.461 88.5615 133.833 89.0001C134.573 90.3258 134.505 92.0156 134.249 93.4825C134.079 94.0678 133.873 94.4508 133.49 94.9271C132.773 95.2779 132.116 95.3216 131.333 95.1667C130.917 94.7917 130.917 94.7917 130.667 94.3334C130.578 94.1762 130.578 94.1762 130.487 94.0158C130.318 93.6329 130.29 93.3722 130.289 92.9558C130.288 92.7537 130.288 92.7537 130.288 92.5476C130.289 92.4081 130.29 92.2687 130.292 92.1251C130.29 91.9882 130.289 91.8513 130.288 91.7103C130.291 90.608 130.37 89.5983 131.01 88.6667C131.596 88.2682 131.947 88.22 132.642 88.265Z" fill="#FAFBFB"/>
	<path d="M137.667 87.5C138.052 87.5 138.437 87.5 138.833 87.5C138.836 87.7035 138.838 87.907 138.841 88.1167C138.85 88.8721 138.863 89.6275 138.877 90.3829C138.883 90.7098 138.887 91.0366 138.891 91.3635C138.897 91.8336 138.905 92.3035 138.915 92.7734C138.916 92.9195 138.917 93.0655 138.918 93.216C138.936 94.0214 138.936 94.0214 139.233 94.759C139.581 95.0736 139.775 95.0847 140.24 95.0729C140.367 95.0727 140.494 95.0725 140.624 95.0723C141.13 94.9749 141.313 94.8847 141.667 94.5C141.774 93.9756 141.767 93.4538 141.768 92.9199C141.771 92.7653 141.774 92.6106 141.777 92.4512C141.785 91.9571 141.788 91.463 141.792 90.9688C141.796 90.6338 141.801 90.2988 141.807 89.9639C141.819 89.1426 141.827 88.3214 141.833 87.5C142.273 87.5 142.713 87.5 143.167 87.5C143.183 88.3982 143.195 89.2964 143.203 90.1947C143.207 90.4997 143.211 90.8047 143.217 91.1097C143.225 91.5504 143.229 91.9909 143.232 92.4316C143.235 92.5661 143.239 92.7005 143.242 92.839C143.243 93.8247 143.037 94.6618 142.5 95.5C141.68 96.1797 140.799 96.2648 139.758 96.2188C139.173 96.147 138.806 96.0243 138.333 95.6667C137.657 94.7147 137.575 94.0049 137.602 92.8548C137.602 92.7011 137.603 92.5474 137.604 92.389C137.608 91.9016 137.616 91.4144 137.625 90.9271C137.628 90.5952 137.631 90.2632 137.634 89.9313C137.641 89.1208 137.653 88.3104 137.667 87.5Z" fill="#304862"/>
	<path d="M161 87.3333C161.494 87.5099 161.881 87.7268 162.333 88C162.333 88.6666 162.333 88.6666 162.167 89C161.375 88.6875 161.375 88.6875 161 88.5C160.012 88.3815 160.012 88.3815 159.146 88.7708C158.944 89.3193 158.982 89.6129 159.167 90.1666C159.611 90.6374 160.046 90.8634 160.646 91.0729C161.497 91.3712 162.254 91.7709 162.74 92.5521C162.94 93.5113 162.97 94.1925 162.49 95.0521C162.05 95.6758 161.589 96.0223 160.833 96.1666C159.71 96.2826 158.826 96.2156 157.833 95.6666C157.723 95.5566 157.613 95.4466 157.5 95.3333C157.563 94.9791 157.563 94.9791 157.667 94.6666C158.333 94.6666 158.333 94.6666 158.833 95C159.268 95.0591 159.268 95.0591 159.74 95.0521C159.976 95.0562 159.976 95.0562 160.218 95.0605C160.749 94.9889 160.973 94.8965 161.333 94.5C161.414 94.0435 161.414 94.0435 161.375 93.5521C161.366 93.3036 161.366 93.3036 161.357 93.0501C161.345 92.8603 161.345 92.8603 161.333 92.6666C160.918 92.4991 160.503 92.3344 160.083 92.1784C158.294 91.5018 158.294 91.5018 157.818 90.6901C157.553 90.0656 157.521 89.4954 157.667 88.8333C158.559 87.4446 159.392 87.1672 161 87.3333Z" fill="#2E4761"/>
	<path d="M174.5 87.5C175.875 87.5 177.25 87.5 178.667 87.5C178.667 87.83 178.667 88.16 178.667 88.5C177.677 88.5 176.687 88.5 175.667 88.5C175.667 89.38 175.667 90.26 175.667 91.1667C176.547 91.1667 177.427 91.1667 178.333 91.1667C178.333 91.4967 178.333 91.8267 178.333 92.1667C177.453 92.1667 176.573 92.1667 175.667 92.1667C175.667 93.1567 175.667 94.1467 175.667 95.1667C176.712 95.1667 177.757 95.1667 178.833 95.1667C178.833 95.4417 178.833 95.7167 178.833 96C177.403 96 175.973 96 174.5 96C174.5 93.195 174.5 90.39 174.5 87.5Z" fill="#2E4661"/>
	<path d="M110.667 35C111.382 35 112.097 35 112.833 35C113.534 35.9337 113.413 36.6873 113.406 37.8229C113.411 38.118 113.411 38.118 113.416 38.4189C113.416 38.6088 113.416 38.7986 113.416 38.9941C113.416 39.2535 113.416 39.2535 113.417 39.5182C113.303 40.1773 113.201 40.4164 112.667 40.8333C112.007 40.8333 111.347 40.8333 110.667 40.8333C110.667 38.9083 110.667 36.9833 110.667 35Z" fill="#F7F8F9"/>
	<path d="M122 87.5C123.815 87.5 125.63 87.5 127.5 87.5C127.5 87.83 127.5 88.16 127.5 88.5C126.785 88.5 126.07 88.5 125.333 88.5C125.333 91.03 125.333 93.56 125.333 96.1667C124.948 96.1667 124.563 96.1667 124.167 96.1667C124.167 93.6367 124.167 91.1067 124.167 88.5C123.452 88.5 122.737 88.5 122 88.5C122 88.17 122 87.84 122 87.5Z" fill="#2E4761"/>
	<path d="M118.833 35C119.493 35 120.153 35 120.833 35C121.524 35.6907 121.403 36.1603 121.41 37.1029C121.408 37.4129 121.408 37.4129 121.406 37.7292C121.41 37.9346 121.413 38.1399 121.416 38.3516C121.416 38.5496 121.416 38.7477 121.416 38.9518C121.416 39.1328 121.417 39.3138 121.417 39.5002C121.306 40.1623 121.198 40.4122 120.667 40.8333C120.062 40.8333 119.457 40.8333 118.833 40.8333C118.833 38.9083 118.833 36.9833 118.833 35Z" fill="#F6F7F8"/>
	<path d="M114.167 34.4999C114.726 34.9383 114.972 35.1829 115.105 35.8889C115.105 36.1991 115.105 36.1991 115.105 36.5155C115.105 36.627 115.106 36.7386 115.106 36.8535C115.106 37.0882 115.104 37.323 115.1 37.5577C115.094 37.9156 115.096 38.2728 115.099 38.6307C115.098 38.8597 115.097 39.0887 115.094 39.3176C115.092 39.6278 115.092 39.6278 115.089 39.9442C114.985 40.5956 114.795 40.8706 114.333 41.3332C113.541 41.7124 112.796 41.7076 111.938 41.6874C111.754 41.6851 111.754 41.6851 111.566 41.6828C111.266 41.6789 110.966 41.673 110.667 41.6666C110.667 41.6116 110.667 41.5566 110.667 41.4999C111.492 41.4174 111.492 41.4174 112.333 41.3332C112.333 41.2782 112.333 41.2232 112.333 41.1666C111.783 41.1116 111.233 41.0566 110.667 40.9999C110.667 40.9449 110.667 40.8899 110.667 40.8332C110.805 40.8289 110.944 40.8246 111.087 40.8202C111.358 40.806 111.358 40.806 111.635 40.7916C111.815 40.7838 111.995 40.7761 112.18 40.7681C112.672 40.7118 112.672 40.7118 112.943 40.3891C113.225 39.8974 113.229 39.5696 113.227 39.0044C113.227 38.8133 113.227 38.6222 113.227 38.4253C113.224 38.2265 113.222 38.0277 113.219 37.8228C113.219 37.6233 113.22 37.4238 113.22 37.2183C113.254 36.1305 113.254 36.1305 112.833 35.1666C112.314 35.0689 112.314 35.0689 111.729 35.052C111.531 35.041 111.333 35.0301 111.129 35.0188C110.976 35.0125 110.824 35.0063 110.667 34.9999C110.667 34.9449 110.667 34.8899 110.667 34.8332C111.327 34.8332 111.987 34.8332 112.667 34.8332C112.667 34.7232 112.667 34.6132 112.667 34.4999C113.204 34.2311 113.594 34.3639 114.167 34.4999Z" fill="#28415C"/>
	<path d="M108.833 91.1667C111.418 91.1667 114.003 91.1667 116.667 91.1667C116.667 91.7167 116.667 92.2667 116.667 92.8334C115.578 92.8375 114.489 92.8406 113.4 92.8426C113.03 92.8434 112.659 92.8445 112.288 92.846C111.757 92.848 111.225 92.849 110.693 92.8497C110.443 92.851 110.443 92.851 110.188 92.8523C110.034 92.8523 109.881 92.8523 109.723 92.8523C109.519 92.8529 109.519 92.8529 109.311 92.8535C109 92.8334 109 92.8334 108.833 92.6667C108.833 92.1717 108.833 91.6767 108.833 91.1667Z" fill="#E95B3B"/>
	<path d="M184.667 91.1667C187.197 91.1667 189.727 91.1667 192.333 91.1667C192.333 91.7167 192.333 92.2667 192.333 92.8334C189.803 92.8334 187.273 92.8334 184.667 92.8334C184.667 92.2834 184.667 91.7334 184.667 91.1667Z" fill="#E95939"/>
	<path d="M153.833 87.5C154.218 87.5 154.603 87.5 155 87.5C155 90.305 155 93.11 155 96C154.615 96 154.23 96 153.833 96C153.833 93.195 153.833 90.39 153.833 87.5Z" fill="#263F5B"/>
	<path d="M147 88.5C148.677 88.399 148.677 88.399 149.365 88.8438C149.746 89.4617 149.782 89.7852 149.667 90.5C149.311 91.0649 149.137 91.2876 148.5 91.5C148.005 91.5 147.51 91.5 147 91.5C147 90.51 147 89.52 147 88.5Z" fill="#F9F9FA"/>
	<path d="M134.833 50.5C135.493 50.5 136.153 50.5 136.833 50.5C136.55 50.9505 136.265 51.4005 135.977 51.8477C135.795 52.1327 135.617 52.4207 135.451 52.7148C135.26 53.0313 135.26 53.0313 134.833 53.5C134.35 53.5977 133.998 53.5591 133.5 53.5C133.818 52.4077 134.257 51.481 134.833 50.5Z" fill="#29425D"/>
	<path d="M160 31.3334C160.657 31.2594 160.921 31.2731 161.456 31.6805C161.598 31.8306 161.74 31.9808 161.885 32.1355C162.029 32.2844 162.173 32.4333 162.321 32.5867C162.667 33.0001 162.667 33.0001 162.833 33.5001C161.829 33.6206 161.829 33.6206 161.367 33.2775C161.122 33.0289 160.893 32.7652 160.667 32.5001C160.239 32.6833 160.004 32.8289 159.698 33.1876C159.333 33.5001 159.333 33.5001 158.708 33.5418C158.53 33.528 158.351 33.5143 158.167 33.5001C158.321 33.2803 158.478 33.0618 158.635 32.8439C158.722 32.722 158.809 32.6002 158.899 32.4747C159.167 32.1668 159.167 32.1668 159.667 32.0001C159.868 31.6668 159.868 31.6668 160 31.3334Z" fill="#334B65"/>
	<path d="M155.333 34.3333C155.828 34.3333 156.323 34.3333 156.833 34.3333C156.915 35.669 156.831 36.6581 156.167 37.8333C155.892 37.8333 155.617 37.8333 155.333 37.8333C155.443 37.2283 155.553 36.6233 155.667 35.9999C155.557 35.9999 155.447 35.9999 155.333 35.9999C155.333 35.4499 155.333 34.8999 155.333 34.3333Z" fill="#27405B"/>
	<path d="M170.667 89C170.722 89 170.777 89 170.833 89C170.888 90.045 170.943 91.09 171 92.1667C170.945 92.1667 170.89 92.1667 170.833 92.1667C170.778 91.7817 170.723 91.3967 170.667 91C170.419 91.165 170.419 91.165 170.167 91.3333C170.266 90.5218 170.428 89.7787 170.667 89Z" fill="#CAD0D7"/>
	<path d="M155.333 57.8333C155.443 57.8333 155.553 57.8333 155.667 57.8333C155.901 58.8532 156.039 59.7862 156 60.8333C155.945 60.8333 155.89 60.8333 155.833 60.8333C155.723 60.2283 155.613 59.6233 155.5 58.9999C155.445 58.9999 155.39 58.9999 155.333 58.9999C155.333 58.6149 155.333 58.2299 155.333 57.8333Z" fill="#B7BFC8"/>
	<path d="M132.281 88.3125C132.483 88.3171 132.483 88.3171 132.689 88.3217C132.843 88.3275 132.843 88.3275 133 88.3334C133 88.3884 133 88.4434 133 88.5C132.701 88.5155 132.701 88.5155 132.396 88.5313C131.599 88.6249 131.232 88.9484 130.667 89.5C130.978 88.5912 131.31 88.2844 132.281 88.3125Z" fill="#DCE0E4"/>
	<path d="M124 7.5C124.11 7.555 124.22 7.61 124.333 7.66667C124.291 8.05719 124.235 8.44641 124.167 8.83333C124.002 8.91583 124.002 8.91583 123.833 9C123.817 7.97461 123.817 7.97461 123.833 7.66667C123.888 7.61167 123.943 7.55667 124 7.5Z" fill="#CAD0D7"/>
	<path d="M110.5 55C110.61 55.055 110.72 55.11 110.833 55.1667C110.393 55.6067 109.953 56.0467 109.5 56.5C109.5 56 109.5 56 109.906 55.5625C110.047 55.4319 110.188 55.3013 110.333 55.1667C110.388 55.1117 110.443 55.0567 110.5 55Z" fill="#3E556E"/>
</svg>
