<svg width="101" height="38" viewBox="0 0 101 38" fill="none" xmlns="http://www.w3.org/2000/svg">
    <path id="Vector" d="M4.0284 27.5899C7.47157 24.203 10.0323 29.434 10.9641 29.7721C16.3633 31.7329 15.1107 24.9775 16.3325 22.0024C17.9121 18.1422 24.0457 11.4052 16.8446 8.10437C6.19426 3.22376 8.10713 18.5233 1.59103 14.8659C-2.85177 12.3764 3.06579 3.66633 6.47811 1.82842C18.2022 -4.4844 30.8024 6.59224 26.1992 19.1257C25.4772 21.0988 23.7063 22.5679 22.972 24.3936C22.0464 26.7109 22.6696 29.5323 21.1393 32.2738C14.9935 43.2952 -1.3585 32.8824 4.02222 27.5899H4.0284ZM5.70062 29.268C3.11515 31.948 14.8824 39.2259 19.1586 30.8969C20.4606 28.3644 19.8435 26.0163 20.658 23.9018C21.5343 21.6336 23.8914 19.4761 24.3604 17.2878C26.2918 8.17198 19.8065 0.752722 10.3902 2.70742C2.93621 4.25643 0.400109 15.6281 4.47885 12.8805C4.64545 12.7698 5.10824 9.91155 5.79317 9.03254C12.8893 -0.0525174 25.7364 6.93032 21.707 17.6689C21.0715 19.3593 19.0352 21.6336 18.1158 23.785C17.0915 26.1884 18.6958 29.4586 15.4439 31.4317C9.84106 34.8309 7.13218 27.7866 5.70062 29.268Z" fill="#DEE7F2"/>
    <path id="Vector_2" d="M10.4164 14.496C9.33526 14.496 8.29845 14.9228 7.534 15.6825C6.76955 16.4422 6.34009 17.4727 6.34009 18.5471C6.34009 21.8265 10.4164 24.9131 10.4164 24.9131C10.4164 24.9131 14.4926 21.8265 14.4926 18.5471C14.4926 17.4727 14.0632 16.4422 13.2987 15.6825C12.5343 14.9228 11.4975 14.496 10.4164 14.496ZM10.4164 20.4762C10.0324 20.4762 9.65716 20.363 9.33795 20.1511C9.01874 19.9391 8.76995 19.6378 8.62303 19.2853C8.47612 18.9328 8.43768 18.5449 8.51257 18.1707C8.58747 17.7965 8.77234 17.4528 9.04381 17.183C9.31527 16.9132 9.66114 16.7295 10.0377 16.655C10.4142 16.5806 10.8045 16.6188 11.1592 16.7648C11.5139 16.9108 11.817 17.1581 12.0303 17.4753C12.2436 17.7926 12.3574 18.1655 12.3574 18.5471C12.3574 19.0587 12.1529 19.5494 11.7889 19.9112C11.4249 20.2729 10.9312 20.4762 10.4164 20.4762Z" fill="#E94F2D"/>
    <path id="Union" fill-rule="evenodd" clip-rule="evenodd" d="M53.7659 16.3076C54.849 16.4489 55.4102 17.1816 55.6497 18.2051V34.2344C55.6087 34.6232 55.2593 35.6402 54.9681 35.873H54.9661C54.8021 36.0034 54.2106 36.2124 53.9798 36.2363L37.4427 36.1689C36.9421 35.8626 36.3299 35.56 36.3558 34.8799C36.6642 29.3367 35.9609 23.374 36.3558 17.8809C36.4227 16.9793 37.1513 16.4402 38.0228 16.3076H53.7659ZM39.43 31.6836C39.1883 31.877 39.1776 32.3402 39.43 32.5488H52.3011V31.6836H39.43ZM39.43 29.8428C39.1883 30.0362 39.1776 30.4994 39.43 30.708H52.3011V29.8428H39.43ZM39.43 28.0049C39.1883 28.1983 39.1776 28.6615 39.43 28.8701H52.3011V28.0049H39.43ZM39.5374 26.1641C39.337 26.1645 39.1944 26.7681 39.261 26.9639C39.274 27.0095 39.5919 27.131 39.6458 27.1396V27.1377H52.1419C52.3919 26.9202 52.3921 26.3791 52.1419 26.1641H39.5374ZM44.7415 20.126C44.5754 20.0282 44.1219 20.1426 43.8997 20.1035C43.8263 20.5816 44.1456 20.9757 44.3743 21.3604C44.6031 21.745 45.3062 22.392 45.1897 22.8418C45.1681 22.9222 45.0266 22.9225 44.9856 23.0029C44.6318 23.7178 44.1655 24.2219 43.762 24.876C43.6909 24.9909 43.6496 25.0301 43.6839 25.1904C45.0129 25.4968 45.0755 24.3344 45.7874 23.5674C46.6741 24.1258 46.4631 25.5533 47.887 25.1904C48.089 24.9903 47.3524 24.1944 47.2483 24.0244C47.1901 23.9288 47.2072 23.7587 47.136 23.6436C47.0773 23.552 46.6543 23.1513 46.6038 23.0508C46.3341 22.488 46.7203 22.2876 46.9231 21.8096C47.1373 21.5871 48.0101 20.4426 47.844 20.208C46.7243 19.6496 46.4932 21.2275 45.8977 21.8359C45.6604 21.7423 44.8966 20.2148 44.7435 20.1279L44.7415 20.126ZM43.2591 20.1494C43.1162 20.0518 40.2352 20.0588 39.8528 20.0957C39.4301 20.137 39.2353 20.1995 39.261 20.6924C39.3495 21.2595 40.4612 21.0339 40.8841 21.0752V25.1904C41.2098 25.1601 41.6242 25.3127 41.8528 25.0283V21.0771L43.346 20.9531L43.2591 20.1494ZM48.4808 20.1035C48.2219 20.2817 48.2432 20.882 48.5345 21.0254L49.9349 21.0801V25.1934H50.7952V21.0801L52.2024 21.0322L52.303 20.1035H48.4808Z" fill="#DEE7F2"/>
    <path d="M91.0859 23.2959C91.3879 23.146 91.6644 23.2568 91.6279 23.6152C91.5933 23.9454 91.184 24.0674 91.0155 24.252L91.0126 24.2539C90.4495 24.8754 89.1337 26.0342 88.7734 26.6035C88.478 27.0685 88.6334 27.6027 89.205 27.2529L92.6698 23.6738C93.0841 23.4435 93.4724 23.5676 93.3193 24.0869C92.3291 25.0799 91.1664 25.9924 90.2646 27.0723C90.0682 27.3069 89.2874 28.1044 89.8612 28.3174L90.2021 28.3027L93.203 25.3125L93.4511 25.4707L93.3495 25.8711L90.6484 28.5938C90.3722 28.9262 90.6871 29.4345 91.082 29.252L93.6171 26.707C93.8198 26.8482 93.8155 27.0658 93.7616 27.2852L89.289 31.8818C88.0744 32.8052 86.7774 33.0001 85.703 31.7334C84.4629 30.2711 84.7867 28.3137 85.9169 26.9014C86.0766 26.7015 86.8686 25.9384 87.0693 25.8623C87.1944 25.8145 87.4789 25.7472 87.4208 25.999C87.1015 26.3836 86.193 26.9381 86.7323 27.4531L87.0995 27.4053L91.0859 23.2959Z" fill="#DEE7F2"/>
    <path d="M95.1767 23.8369C95.8843 23.6174 96.6094 23.6461 97.33 23.7852C97.045 24.3 95.5499 24.2519 95.1767 23.8369Z" fill="#DEE7F2"/>
    <path d="M95.5527 22.6875C95.8113 22.6183 96.0247 22.9044 96.2079 22.9199C96.4237 22.9395 96.5557 22.7466 96.7499 22.7031C97.1594 22.612 97.0778 22.8481 97.1982 22.9092C97.3448 22.9809 97.6518 22.9419 97.6542 23.1328H94.8534L95.5527 22.6875Z" fill="#DEE7F2"/>
    <path fill-rule="evenodd" clip-rule="evenodd" d="M99.2196 16.3076C100.225 16.4336 100.843 17.2398 100.998 18.2002V34.4502C100.974 34.67 100.735 35.371 100.629 35.5449H100.631C100.439 35.8644 99.7097 36.195 99.33 36.2363H83.0517C82.4886 36.0886 82.0528 35.7407 81.7939 35.2236L81.706 17.8809C81.6715 17.0812 82.6396 16.3859 83.371 16.3076H99.2196ZM90.0058 17.5049C90.0079 16.5098 89.5654 16.4338 88.7909 16.8857C88.4501 17.0835 88.4114 17.3465 88.2734 17.6377C88.2346 17.7179 88.0882 17.7179 88.0683 17.7979C87.8569 18.73 88.3442 19.328 88.6376 20.1211C88.8577 20.7165 88.8774 21.5964 89.5419 21.918C89.7403 22.0134 90.1277 22.0183 90.1972 22.0703C90.3245 22.1681 90.2105 22.6356 90.5341 22.5986L90.54 22.8066C89.9056 23.0504 88.8657 24.6804 88.3437 24.876C88.0913 24.9712 87.7524 24.8195 87.3945 24.8955C85.4358 25.3151 84.0339 27.8678 84.079 29.7842C84.1179 31.4617 85.5376 33.3956 87.2743 33.5107C88.2492 33.5758 89.0451 33.0224 89.828 32.5293L94.5273 27.6182C96.5229 28.6373 98.0523 27.7742 99.4374 26.3379C100.085 25.6686 100.884 24.9626 100.668 23.9521L100.395 23.8867C99.6878 24.6516 98.1494 26.7745 97.2001 27.0635C96.71 27.2133 95.1378 27.1894 94.7431 26.8613C94.631 26.7676 94.5489 26.4548 94.454 26.292C94.3869 26.1793 94.2021 26.1594 94.2021 26.0986C94.1937 25.6208 94.5874 25.052 93.872 24.6914L94.0956 23.998C95.1895 24.8716 96.607 25.0208 97.8583 24.3711C98.0848 24.2538 98.8683 23.6894 98.8212 23.4199C98.7479 23.0071 97.2397 22.0749 96.8339 22.0508C96.5752 22.0356 96.4391 22.2287 96.2861 22.2441C96.1113 22.2615 95.9509 22.064 95.7568 22.0488C95.3765 22.0211 94.1135 22.7119 93.9862 23.1289H93.7743C93.4119 22.1359 92.5401 22.9247 92.3114 22.8965C92.2188 22.8853 92.1888 22.6718 92.122 22.624C91.7964 22.396 91.4812 22.3505 91.0888 22.3613L90.7089 21.0625C90.4285 20.8235 89.9905 21.277 89.7294 20.9668C89.5935 19.8304 87.7941 17.4813 90.0009 17.5029L90.0058 17.5049Z" fill="#DEE7F2"/>
    <path d="M67.874 25.5195C68.4673 25.7564 68.0299 26.6386 67.7559 27.0254C67.4221 27.4959 66.738 27.7367 67.0635 28.4375H68.9463C69.6991 28.4375 71.8261 27.6382 72.7217 27.4707C73.1791 27.3838 73.8699 27.5293 73.3672 28.0117C73.1916 28.1792 71.0886 28.7484 70.6572 28.8613C70.3849 28.9331 68.7222 29.163 68.6729 29.3779L68.6768 29.9561C70.3919 30.0169 72.0813 29.6002 73.79 29.5176C74.3747 29.4893 74.5734 29.5087 74.4893 30.167L68.6768 30.8213L68.7461 31.4756C69.5119 31.6841 70.3187 31.5205 71.0996 31.5791C71.4556 31.6052 71.8204 31.7572 72.1807 31.792C72.7869 31.8506 73.5055 31.621 74.0146 32.0078C74.3676 32.568 72.6453 32.462 72.3965 32.4424C71.4581 32.3729 70.6985 32.2505 69.7041 32.2266C69.3741 32.2179 69.0524 31.9925 68.6943 32.2422L68.6787 32.875L72.3428 33.5762L72.4482 34.0654C72.2152 34.0546 71.9752 34.0831 71.7422 34.0723C70.7283 34.02 69.6153 33.6068 68.623 33.5264C67.2553 33.4134 64.9319 33.8476 63.8057 33.0938C63.4044 32.8243 63.4319 32.5573 63.2852 32.2031C63.2549 32.1293 63.1108 32.1335 63.085 32.04C63.0461 31.9075 62.962 31.2456 62.9619 31.0908C62.9619 29.0656 64.2154 28.8635 65.4883 27.7705C66.3102 27.0644 67.0931 26.2735 67.874 25.5195Z" fill="#DEE7F2"/>
    <path fill-rule="evenodd" clip-rule="evenodd" d="M76.4932 16.3076C77.4554 16.4445 78.2407 17.1925 78.2666 18.2051C77.9927 23.4809 78.6182 29.1043 78.2666 34.3389C78.2515 34.569 78.1959 35.0186 78.1162 35.2188H78.1182C78.1009 35.26 77.6087 35.8451 77.5332 35.8994C77.3584 36.0254 77.028 36.203 76.8145 36.2334H60.3232C59.745 36.0835 59.0629 35.5079 58.9766 34.8799V17.7705C59.1966 16.8797 59.8827 16.4446 60.752 16.3076H76.4932ZM68.5215 24.8564C68.3316 24.7196 67.8852 24.7151 67.6543 24.7607C67.322 24.8259 65.5611 26.6615 65.1426 27.0244C63.244 28.6693 62.0901 28.585 62.3145 31.6357C62.5755 35.169 66.7483 34.2156 69.1582 34.3916C70.2132 34.4699 71.8638 35.18 72.7979 34.7129C73.2206 34.4998 73.3652 33.5435 72.9834 33.2002C74.6445 33.6346 75.5738 31.6145 73.8457 31.0908C74.1521 30.7909 74.5669 31.0406 74.9229 30.7646C75.898 30.0128 75.0651 28.5873 73.9541 28.6523C74.6013 27.492 74.2191 26.6027 72.8232 26.707C71.6776 26.7918 70.0916 27.4155 68.918 27.6523C68.7282 27.6914 68.5425 27.6874 68.3506 27.6787H68.3535C68.278 27.6114 69.0845 26.3556 68.9961 25.7949C68.9767 25.6733 68.6102 24.9224 68.5215 24.8564ZM69.9717 18.4785C69.7063 17.2921 68.4307 17.1313 67.8223 18.1309C67.2592 19.0544 66.7139 20.6668 66.1768 21.7598C66.0365 22.0444 66.0534 22.3398 65.7148 22.5918C65.5206 21.3445 64.3379 19.9497 63.1104 20.9971L63.3936 27.8486C63.7535 27.9526 64.0097 27.7831 64.0508 27.4141C64.1996 26.119 64.0966 23.4371 63.9326 22.1094C63.9024 21.8639 63.6742 21.6728 63.7236 21.4014C64.9897 21.3604 64.9102 22.9525 65.1367 23.876C65.6136 24.1754 66.5213 22.8826 66.7197 22.5176C67.3431 21.3725 67.8526 19.4763 68.5234 18.4854C68.9183 17.9008 69.208 18.4245 69.0635 19.0264C68.8433 19.9391 67.8503 21.5098 67.4922 22.5332C67.3326 22.9938 67.0459 23.7694 67.8135 23.5068L70.7178 18.8779C70.8755 18.5828 71.5142 18.7658 71.4668 19.0547C70.6362 20.6126 69.4125 22.1181 68.666 23.6934C68.6164 23.7998 68.2434 23.9242 68.5088 24.3262C68.9381 24.9706 69.8978 23.3141 70.0771 23.1094C70.8042 22.2858 71.5959 21.5094 72.3057 20.6641L72.7676 20.6426C72.7848 20.7989 72.7736 20.9249 72.709 21.0703C72.5558 21.4136 71.1755 22.9573 70.8281 23.3701C70.5196 23.7374 69.4255 24.6475 69.5527 25.1104C69.6455 25.3254 69.8501 25.4902 70.0723 25.3535C70.7756 24.7581 71.4711 23.9132 72.1787 23.3525C72.4462 23.1418 72.7199 22.8531 73.0908 22.916C73.0801 23.0832 73.138 23.27 73.0625 23.4307C73.0199 23.5168 71.9038 24.565 71.7119 24.7539C70.9892 25.4644 69.9626 26.0624 69.6455 27.1357C70.6617 27.2618 70.5926 26.7681 71.0996 26.2705C71.9539 25.4318 72.9142 24.6775 73.7383 23.8105C74.0509 23.1065 73.7463 22.1031 72.877 22.1553C73.7701 21.5056 73.7296 19.78 72.5 19.7646C72.2219 19.7603 72.1569 20.0059 71.9092 19.9932C71.8164 19.8954 72.6119 18.6242 71.6631 18.1309C71.1669 17.8723 70.379 17.9353 70.1309 18.4785H69.9717Z" fill="#DEE7F2"/>
</svg>
